<svg width="28" height="28" viewBox="0 0 28 28" fill="none" xmlns="http://www.w3.org/2000/svg">
<rect width="28" height="28" rx="4" fill="white"/>
<path d="M14 20C13.7022 19.9984 13.4085 19.9274 13.1402 19.7921C12.8718 19.6568 12.6356 19.4606 12.4486 19.2178L7.53792 12.9844C7.25097 12.6092 7.0704 12.157 7.01678 11.6794C6.96316 11.2019 7.03865 10.7181 7.23465 10.2833C7.39361 9.90545 7.65302 9.58351 7.98189 9.35594C8.31077 9.12837 8.6952 9.00481 9.08929 9H18.9107C19.3048 9.00481 19.6892 9.12837 20.0181 9.35594C20.347 9.58351 20.6064 9.90545 20.7653 10.2833C20.9613 10.7181 21.0368 11.2019 20.9832 11.6794C20.9296 12.157 20.749 12.6092 20.4621 12.9844L15.5514 19.2178C15.3644 19.4606 15.1282 19.6568 14.8598 19.7921C14.5915 19.9274 14.2978 19.9984 14 20Z" fill="#445215"/>
</svg>
