<svg width="23" height="23" viewBox="0 0 23 23" fill="none" xmlns="http://www.w3.org/2000/svg">
<rect width="23" height="23" rx="11.5" fill="white"/>
<path d="M11.5 16C11.266 15.9987 11.0353 15.9406 10.8244 15.8299C10.6136 15.7192 10.428 15.5587 10.2811 15.36L6.42266 10.26C6.19719 9.95297 6.05531 9.583 6.01318 9.19227C5.97105 8.80153 6.03037 8.40574 6.18437 8.05C6.30927 7.74083 6.51309 7.47741 6.77149 7.29122C7.02989 7.10503 7.33195 7.00393 7.64158 7H15.3584C15.6681 7.00393 15.9701 7.10503 16.2285 7.29122C16.4869 7.47741 16.6907 7.74083 16.8156 8.05C16.9696 8.40574 17.0289 8.80153 16.9868 9.19227C16.9447 9.583 16.8028 9.95297 16.5773 10.26L12.7189 15.36C12.572 15.5587 12.3864 15.7192 12.1756 15.8299C11.9647 15.9406 11.734 15.9987 11.5 16Z" fill="#7A930D"/>
</svg>
