<svg width="29" height="25" viewBox="0 0 29 25" fill="none" xmlns="http://www.w3.org/2000/svg">
<path d="M8.9799 0.40515C9.1006 0.215521 9.29639 0.078787 9.52421 0.0250269C9.75203 -0.0287332 9.99321 0.00488467 10.1947 0.118485C10.3962 0.232085 10.5415 0.416363 10.5986 0.630778C10.6557 0.845193 10.62 1.07218 10.4993 1.26181L5.99073 8.33344H22.3426L17.8323 1.26181C17.7116 1.07218 17.6759 0.845193 17.733 0.630778C17.7901 0.416363 17.9354 0.232085 18.1369 0.118485C18.3384 0.00488467 18.5795 -0.0287332 18.8074 0.0250269C19.0352 0.078787 19.231 0.215521 19.3517 0.40515L24.4074 8.33344H27.4479C27.6827 8.33344 27.908 8.42123 28.074 8.57751C28.24 8.73379 28.3333 8.94575 28.3333 9.16676V12.5001C28.3333 12.7211 28.24 12.933 28.074 13.0893C27.908 13.2456 27.6827 13.3334 27.4479 13.3334H26.5625V21.6667C26.5625 22.5507 26.1894 23.3986 25.5252 24.0237C24.861 24.6488 23.9601 25 23.0208 25H5.3125C4.37319 25 3.47235 24.6488 2.80816 24.0237C2.14397 23.3986 1.77083 22.5507 1.77083 21.6667V13.3334H0.885417C0.65059 13.3334 0.42538 13.2456 0.259333 13.0893C0.0932847 12.933 0 12.7211 0 12.5001V9.16676C0 8.94575 0.0932847 8.73379 0.259333 8.57751C0.42538 8.42123 0.65059 8.33344 0.885417 8.33344H3.92594L8.9799 0.40515ZM6.19792 15.8334C6.19792 15.6124 6.10463 15.4004 5.93858 15.2441C5.77254 15.0879 5.54733 15.0001 5.3125 15.0001C5.07767 15.0001 4.85246 15.0879 4.68642 15.2441C4.52037 15.4004 4.42708 15.6124 4.42708 15.8334V20.8334C4.42708 21.0544 4.52037 21.2663 4.68642 21.4226C4.85246 21.5789 5.07767 21.6667 5.3125 21.6667C5.54733 21.6667 5.77254 21.5789 5.93858 21.4226C6.10463 21.2663 6.19792 21.0544 6.19792 20.8334V15.8334ZM10.625 15.8334C10.625 15.6124 10.5317 15.4004 10.3657 15.2441C10.1996 15.0879 9.97441 15.0001 9.73958 15.0001C9.50476 15.0001 9.27955 15.0879 9.1135 15.2441C8.94745 15.4004 8.85417 15.6124 8.85417 15.8334V20.8334C8.85417 21.0544 8.94745 21.2663 9.1135 21.4226C9.27955 21.5789 9.50476 21.6667 9.73958 21.6667C9.97441 21.6667 10.1996 21.5789 10.3657 21.4226C10.5317 21.2663 10.625 21.0544 10.625 20.8334V15.8334ZM15.0521 15.8334C15.0521 15.6124 14.9588 15.4004 14.7928 15.2441C14.6267 15.0879 14.4015 15.0001 14.1667 15.0001C13.9318 15.0001 13.7066 15.0879 13.5406 15.2441C13.3745 15.4004 13.2813 15.6124 13.2813 15.8334V20.8334C13.2813 21.0544 13.3745 21.2663 13.5406 21.4226C13.7066 21.5789 13.9318 21.6667 14.1667 21.6667C14.4015 21.6667 14.6267 21.5789 14.7928 21.4226C14.9588 21.2663 15.0521 21.0544 15.0521 20.8334V15.8334ZM19.4792 15.8334C19.4792 15.6124 19.3859 15.4004 19.2198 15.2441C19.0538 15.0879 18.8286 15.0001 18.5938 15.0001C18.3589 15.0001 18.1337 15.0879 17.9677 15.2441C17.8016 15.4004 17.7083 15.6124 17.7083 15.8334V20.8334C17.7083 21.0544 17.8016 21.2663 17.9677 21.4226C18.1337 21.5789 18.3589 21.6667 18.5938 21.6667C18.8286 21.6667 19.0538 21.5789 19.2198 21.4226C19.3859 21.2663 19.4792 21.0544 19.4792 20.8334V15.8334ZM23.9063 15.8334C23.9063 15.6124 23.813 15.4004 23.6469 15.2441C23.4809 15.0879 23.2557 15.0001 23.0208 15.0001C22.786 15.0001 22.5608 15.0879 22.3947 15.2441C22.2287 15.4004 22.1354 15.6124 22.1354 15.8334V20.8334C22.1354 21.0544 22.2287 21.2663 22.3947 21.4226C22.5608 21.5789 22.786 21.6667 23.0208 21.6667C23.2557 21.6667 23.4809 21.5789 23.6469 21.4226C23.813 21.2663 23.9063 21.0544 23.9063 20.8334V15.8334Z" fill="#516113"/>
</svg>
