<svg width="28" height="24" viewBox="0 0 28 24" fill="none" xmlns="http://www.w3.org/2000/svg">
<path d="M8.6207 0.388944C8.73657 0.206901 8.92454 0.0756355 9.14324 0.0240258C9.36195 -0.0275838 9.59348 0.00468928 9.7869 0.113746C9.98032 0.222802 10.1198 0.399708 10.1746 0.605547C10.2295 0.811386 10.1952 1.0293 10.0793 1.21134L5.7511 8.0001H21.4489L17.119 1.21134C17.0031 1.0293 16.9688 0.811386 17.0237 0.605547C17.0785 0.399708 17.218 0.222802 17.4114 0.113746C17.6048 0.00468928 17.8364 -0.0275839 18.0551 0.0240258C18.2738 0.0756355 18.4617 0.206901 18.5776 0.388944L23.4311 8.0001H26.35C26.5754 8.0001 26.7916 8.08438 26.951 8.23441C27.1104 8.38444 27.2 8.58792 27.2 8.80009V12.0001C27.2 12.2122 27.1104 12.4157 26.951 12.5658C26.7916 12.7158 26.5754 12.8001 26.35 12.8001H25.5V20.8C25.5 21.6487 25.1418 22.4626 24.5042 23.0627C23.8665 23.6629 23.0017 24 22.1 24H5.1C4.19826 24 3.33346 23.6629 2.69584 23.0627C2.05821 22.4626 1.7 21.6487 1.7 20.8V12.8001H0.85C0.624566 12.8001 0.408365 12.7158 0.248959 12.5658C0.0895533 12.4157 0 12.2122 0 12.0001V8.80009C0 8.58792 0.0895533 8.38444 0.248959 8.23441C0.408365 8.08438 0.624566 8.0001 0.85 8.0001H3.7689L8.6207 0.388944ZM5.95 15.2001C5.95 14.9879 5.86045 14.7844 5.70104 14.6344C5.54163 14.4843 5.32543 14.4001 5.1 14.4001C4.87457 14.4001 4.65837 14.4843 4.49896 14.6344C4.33955 14.7844 4.25 14.9879 4.25 15.2001V20C4.25 20.2122 4.33955 20.4157 4.49896 20.5657C4.65837 20.7157 4.87457 20.8 5.1 20.8C5.32543 20.8 5.54163 20.7157 5.70104 20.5657C5.86045 20.4157 5.95 20.2122 5.95 20V15.2001ZM10.2 15.2001C10.2 14.9879 10.1104 14.7844 9.95104 14.6344C9.79163 14.4843 9.57543 14.4001 9.35 14.4001C9.12457 14.4001 8.90836 14.4843 8.74896 14.6344C8.58955 14.7844 8.5 14.9879 8.5 15.2001V20C8.5 20.2122 8.58955 20.4157 8.74896 20.5657C8.90836 20.7157 9.12457 20.8 9.35 20.8C9.57543 20.8 9.79163 20.7157 9.95104 20.5657C10.1104 20.4157 10.2 20.2122 10.2 20V15.2001ZM14.45 15.2001C14.45 14.9879 14.3604 14.7844 14.201 14.6344C14.0416 14.4843 13.8254 14.4001 13.6 14.4001C13.3746 14.4001 13.1584 14.4843 12.999 14.6344C12.8396 14.7844 12.75 14.9879 12.75 15.2001V20C12.75 20.2122 12.8396 20.4157 12.999 20.5657C13.1584 20.7157 13.3746 20.8 13.6 20.8C13.8254 20.8 14.0416 20.7157 14.201 20.5657C14.3604 20.4157 14.45 20.2122 14.45 20V15.2001ZM18.7 15.2001C18.7 14.9879 18.6104 14.7844 18.451 14.6344C18.2916 14.4843 18.0754 14.4001 17.85 14.4001C17.6246 14.4001 17.4084 14.4843 17.249 14.6344C17.0896 14.7844 17 14.9879 17 15.2001V20C17 20.2122 17.0896 20.4157 17.249 20.5657C17.4084 20.7157 17.6246 20.8 17.85 20.8C18.0754 20.8 18.2916 20.7157 18.451 20.5657C18.6104 20.4157 18.7 20.2122 18.7 20V15.2001ZM22.95 15.2001C22.95 14.9879 22.8604 14.7844 22.701 14.6344C22.5416 14.4843 22.3254 14.4001 22.1 14.4001C21.8746 14.4001 21.6584 14.4843 21.499 14.6344C21.3396 14.7844 21.25 14.9879 21.25 15.2001V20C21.25 20.2122 21.3396 20.4157 21.499 20.5657C21.6584 20.7157 21.8746 20.8 22.1 20.8C22.3254 20.8 22.5416 20.7157 22.701 20.5657C22.8604 20.4157 22.95 20.2122 22.95 20V15.2001Z" fill="#445215"/>
</svg>
