<svg width="48" height="48" viewBox="0 0 48 48" fill="none" xmlns="http://www.w3.org/2000/svg">
<circle cx="24" cy="24" r="24" fill="#CCD7F1"/>
<circle cx="24" cy="24" r="20" fill="#A9BDE7"/>
<path d="M31.875 16.6839L27.3711 16.684V15.5626C27.3711 15.2518 27.1193 15 26.8086 15C26.4978 15 26.2461 15.2518 26.2461 15.5626V16.6837H21.7461V15.5626C21.7461 15.2518 21.4943 15 21.1836 15C20.8728 15 20.6211 15.2518 20.6211 15.5626V16.6837H16.125C15.5037 16.6837 15 17.1875 15 17.8089V31.8747C15 32.4961 15.5037 33 16.125 33H31.875C32.4963 33 33 32.4961 33 31.8747V17.8089C33 17.1878 32.4963 16.6839 31.875 16.6839ZM31.875 31.8747H16.125V17.8089H20.6211V18.3758C20.6211 18.6866 20.8728 18.9384 21.1836 18.9384C21.4943 18.9384 21.7461 18.6866 21.7461 18.3758V17.8092H26.2461V18.3761C26.2461 18.6869 26.4978 18.9387 26.8086 18.9387C27.1193 18.9387 27.3711 18.6869 27.3711 18.3761V17.8092H31.875V31.8747ZM27.9375 23.9982H29.0625C29.373 23.9982 29.625 23.7461 29.625 23.4355V22.3103C29.625 21.9997 29.373 21.7476 29.0625 21.7476H27.9375C27.627 21.7476 27.375 21.9997 27.375 22.3103V23.4355C27.375 23.7461 27.627 23.9982 27.9375 23.9982ZM27.9375 28.4989H29.0625C29.373 28.4989 29.625 28.2471 29.625 27.9363V26.811C29.625 26.5005 29.373 26.2484 29.0625 26.2484H27.9375C27.627 26.2484 27.375 26.5005 27.375 26.811V27.9363C27.375 28.2474 27.627 28.4989 27.9375 28.4989ZM24.5625 26.2484H23.4375C23.127 26.2484 22.875 26.5005 22.875 26.811V27.9363C22.875 28.2471 23.127 28.4989 23.4375 28.4989H24.5625C24.873 28.4989 25.125 28.2471 25.125 27.9363V26.811C25.125 26.5007 24.873 26.2484 24.5625 26.2484ZM24.5625 21.7476H23.4375C23.127 21.7476 22.875 21.9997 22.875 22.3103V23.4355C22.875 23.7461 23.127 23.9982 23.4375 23.9982H24.5625C24.873 23.9982 25.125 23.7461 25.125 23.4355V22.3103C25.125 21.9994 24.873 21.7476 24.5625 21.7476ZM20.0625 21.7476H18.9375C18.627 21.7476 18.375 21.9997 18.375 22.3103V23.4355C18.375 23.7461 18.627 23.9982 18.9375 23.9982H20.0625C20.373 23.9982 20.625 23.7461 20.625 23.4355V22.3103C20.625 21.9994 20.373 21.7476 20.0625 21.7476ZM20.0625 26.2484H18.9375C18.627 26.2484 18.375 26.5005 18.375 26.811V27.9363C18.375 28.2471 18.627 28.4989 18.9375 28.4989H20.0625C20.373 28.4989 20.625 28.2471 20.625 27.9363V26.811C20.625 26.5007 20.373 26.2484 20.0625 26.2484Z" fill="#32396E"/>
</svg>
