<svg width="24" height="24" viewBox="0 0 24 24" fill="none" xmlns="http://www.w3.org/2000/svg">
<circle cx="12" cy="12" r="12" fill="#7A930D"/>
<path d="M14.9027 7.36262C13.9356 8.33027 12.9668 9.2981 12.0007 10.2659C11.033 9.29861 10.0652 8.33078 9.09714 7.36262C7.97734 6.24345 6.24229 7.97917 7.36158 9.09834C8.32899 10.0651 9.29726 11.0335 10.2635 11.9999C9.29658 12.9673 8.32849 13.9354 7.36158 14.9032C6.24229 16.0221 7.97819 17.7573 9.09714 16.6388C10.0646 15.671 11.0323 14.7033 12.0007 13.7355C12.9685 14.7033 13.9356 15.6706 14.9027 16.6388C16.0221 17.7575 17.7573 16.0221 16.6389 14.9034C15.671 13.9356 14.7032 12.9683 13.7353 12.0001C14.7034 11.0325 15.6711 10.0646 16.6389 9.09681C17.7573 7.97799 16.0221 6.24227 14.9027 7.36144" fill="#DEF165"/>
</svg>
