<svg width="12" height="12" viewBox="0 0 12 12" fill="none" xmlns="http://www.w3.org/2000/svg">
<path d="M6 11C6.9889 11 7.9556 10.7068 8.77785 10.1573C9.60009 9.60794 10.241 8.82705 10.6194 7.91342C10.9978 6.99979 11.0969 5.99446 10.9039 5.02455C10.711 4.05465 10.2348 3.16373 9.53553 2.46447C8.83627 1.76521 7.94535 1.289 6.97545 1.09608C6.00555 0.90315 5.00021 1.00217 4.08658 1.3806C3.17295 1.75904 2.39206 2.39991 1.84265 3.22215C1.29324 4.0444 1 5.01109 1 6C1 6.82667 1.2 7.60611 1.55556 8.29278L1 11L3.70722 10.4444C4.39389 10.8 5.17389 11 6 11Z" stroke="#516113" stroke-linecap="round" stroke-linejoin="round"/>
</svg>
