<svg width="12" height="8" viewBox="0 0 12 8" fill="none" xmlns="http://www.w3.org/2000/svg">
<path d="M0.8 0H4.8C5.01217 0 5.21566 0.0842855 5.36569 0.234315C5.51571 0.384344 5.6 0.587827 5.6 0.8C5.6 1.01217 5.51571 1.21566 5.36569 1.36569C5.21566 1.51571 5.01217 1.6 4.8 1.6H0.8C0.587827 1.6 0.384344 1.51571 0.234315 1.36569C0.0842855 1.21566 0 1.01217 0 0.8C0 0.587827 0.0842855 0.384344 0.234315 0.234315C0.384344 0.0842855 0.587827 0 0.8 0ZM6.4 6.4H10.4C10.6122 6.4 10.8157 6.48429 10.9657 6.63431C11.1157 6.78434 11.2 6.98783 11.2 7.2C11.2 7.41217 11.1157 7.61566 10.9657 7.76569C10.8157 7.91571 10.6122 8 10.4 8H6.4C6.18783 8 5.98434 7.91571 5.83431 7.76569C5.68429 7.61566 5.6 7.41217 5.6 7.2C5.6 6.98783 5.68429 6.78434 5.83431 6.63431C5.98434 6.48429 6.18783 6.4 6.4 6.4ZM0.8 3.2H10.4C10.6122 3.2 10.8157 3.28429 10.9657 3.43431C11.1157 3.58434 11.2 3.78783 11.2 4C11.2 4.21217 11.1157 4.41566 10.9657 4.56569C10.8157 4.71571 10.6122 4.8 10.4 4.8H0.8C0.587827 4.8 0.384344 4.71571 0.234315 4.56569C0.0842855 4.41566 0 4.21217 0 4C0 3.78783 0.0842855 3.58434 0.234315 3.43431C0.384344 3.28429 0.587827 3.2 0.8 3.2Z" fill="#516113"/>
</svg>
