<svg width="27" height="27" viewBox="0 0 27 27" fill="none" xmlns="http://www.w3.org/2000/svg">
<circle cx="13.5" cy="13.5" r="13.5" fill="#7A930D"/>
<path d="M11.1789 16.8336L10.2503 15.9045L9.59521 16.5592L11.1789 18.1429L13.9646 15.3571L13.31 14.7025L11.1789 16.8336ZM19.0717 20H17.2146V19.0714H19.0717V13.5H17.2146V9.78571C17.214 9.29336 17.0181 8.82134 16.67 8.47319C16.3218 8.12505 15.8498 7.92919 15.3575 7.92857V7C16.096 7.00086 16.8041 7.29463 17.3263 7.81687C17.8485 8.3391 18.1423 9.04716 18.1432 9.78571V12.5714H19.0717C19.3179 12.5717 19.554 12.6696 19.7281 12.8437C19.9022 13.0178 20.0001 13.2538 20.0003 13.5V19.0714C20.0001 19.3176 19.9022 19.5537 19.7281 19.7278C19.554 19.9018 19.3179 19.9998 19.0717 20Z" fill="#445215"/>
<path d="M15.3571 12.5714H14.4286V9.78571C14.4286 9.0469 14.1351 8.33834 13.6127 7.81592C13.0902 7.29349 12.3817 7 11.6429 7C10.904 7 10.1955 7.29349 9.67306 7.81592C9.15064 8.33834 8.85714 9.0469 8.85714 9.78571V12.5714H7.92857C7.6823 12.5714 7.44611 12.6693 7.27197 12.8434C7.09783 13.0175 7 13.2537 7 13.5V19.0714C7 19.3177 7.09783 19.5539 7.27197 19.728C7.44611 19.9022 7.6823 20 7.92857 20H15.3571C15.6034 20 15.8396 19.9022 16.0137 19.728C16.1879 19.5539 16.2857 19.3177 16.2857 19.0714V13.5C16.2857 13.2537 16.1879 13.0175 16.0137 12.8434C15.8396 12.6693 15.6034 12.5714 15.3571 12.5714ZM9.78571 9.78571C9.78571 9.29317 9.98138 8.8208 10.3297 8.47252C10.6779 8.12423 11.1503 7.92857 11.6429 7.92857C12.1354 7.92857 12.6078 8.12423 12.9561 8.47252C13.3043 8.8208 13.5 9.29317 13.5 9.78571V12.5714H9.78571V9.78571ZM15.3571 19.0714H7.92857V13.5H15.3571V19.0714Z" fill="#445215"/>
</svg>
