<svg width="24" height="24" viewBox="0 0 24 24" fill="none" xmlns="http://www.w3.org/2000/svg">
<circle cx="12" cy="12" r="12" fill="#7A930D"/>
<path d="M10.4237 7.17906C10.5361 7.29387 10.5992 7.44948 10.5992 7.61174C10.5992 7.77399 10.5361 7.92961 10.4237 8.04442L8.04757 10.469H13.1998C14.2077 10.469 15.1743 10.8776 15.887 11.6048C16.5996 12.332 17 13.3183 17 14.3468V16.3877C17 16.5501 16.9368 16.7058 16.8243 16.8207C16.7117 16.9355 16.5591 17 16.4 17C16.2408 17 16.0882 16.9355 15.9757 16.8207C15.8632 16.7058 15.7999 16.5501 15.7999 16.3877V14.3468C15.7999 13.6431 15.526 12.9683 15.0384 12.4707C14.5508 11.9731 13.8894 11.6936 13.1998 11.6936H8.04757L10.4237 14.1182C10.5027 14.1931 10.5604 14.2882 10.5908 14.3938C10.6212 14.4993 10.6232 14.6112 10.5965 14.7178C10.5698 14.8243 10.5154 14.9215 10.4391 14.9992C10.3628 15.0769 10.2674 15.1321 10.1629 15.1591C10.0586 15.1864 9.94898 15.1845 9.84565 15.1536C9.74231 15.1227 9.64904 15.064 9.57564 14.9836L6.17548 11.514C6.06311 11.3992 6 11.2436 6 11.0813C6 10.9191 6.06311 10.7634 6.17548 10.6486L9.57564 7.17906C9.68815 7.0644 9.84066 7 9.99966 7C10.1587 7 10.3112 7.0644 10.4237 7.17906Z" fill="#DEF165"/>
</svg>
