<svg width="46" height="41" viewBox="0 0 46 41" fill="none" xmlns="http://www.w3.org/2000/svg">
<path d="M43.9091 0H2.09091C1.53637 0 1.00453 0.215981 0.612413 0.600431C0.220291 0.984881 0 1.50631 0 2.05V18.45C0 18.9937 0.220291 19.5151 0.612413 19.8996C1.00453 20.284 1.53637 20.5 2.09091 20.5H8.36364V38.95C8.36364 39.4937 8.58393 40.0151 8.97605 40.3996C9.36817 40.784 9.9 41 10.4545 41H35.5455C36.1 41 36.6318 40.784 37.024 40.3996C37.4161 40.0151 37.6364 39.4937 37.6364 38.95V20.5H43.9091C44.4636 20.5 44.9955 20.284 45.3876 19.8996C45.7797 19.5151 46 18.9937 46 18.45V2.05C46 1.50631 45.7797 0.984881 45.3876 0.600431C44.9955 0.215981 44.4636 0 43.9091 0ZM12.5455 36.9V32.8C13.6545 32.8 14.7182 33.232 15.5024 34.0009C16.2867 34.7698 16.7273 35.8126 16.7273 36.9H12.5455ZM33.4545 36.9H29.2727C29.2727 35.8126 29.7133 34.7698 30.4976 34.0009C31.2818 33.232 32.3455 32.8 33.4545 32.8V36.9ZM33.4545 28.7C31.2364 28.7 29.109 29.5639 27.5406 31.1017C25.9721 32.6395 25.0909 34.7252 25.0909 36.9H20.9091C20.9091 34.7252 20.0279 32.6395 18.4594 31.1017C16.891 29.5639 14.7636 28.7 12.5455 28.7V12.3H33.4545V28.7ZM41.8182 16.4H37.6364V10.25C37.6364 9.70631 37.4161 9.18488 37.024 8.80043C36.6318 8.41598 36.1 8.2 35.5455 8.2H10.4545C9.9 8.2 9.36817 8.41598 8.97605 8.80043C8.58393 9.18488 8.36364 9.70631 8.36364 10.25V16.4H4.18182V4.1H41.8182V16.4ZM23 26.65C24.2406 26.65 25.4534 26.2893 26.4849 25.6135C27.5165 24.9378 28.3205 23.9773 28.7952 22.8535C29.27 21.7297 29.3942 20.4932 29.1522 19.3002C28.9102 18.1072 28.3127 17.0114 27.4355 16.1513C26.5582 15.2912 25.4405 14.7055 24.2237 14.4682C23.007 14.2309 21.7457 14.3527 20.5995 14.8181C19.4533 15.2836 18.4737 16.0719 17.7844 17.0832C17.0952 18.0946 16.7273 19.2836 16.7273 20.5C16.7273 22.1311 17.3881 23.6954 18.5645 24.8487C19.7409 26.0021 21.3364 26.65 23 26.65ZM23 18.45C23.4135 18.45 23.8178 18.5702 24.1616 18.7955C24.5055 19.0207 24.7735 19.3409 24.9317 19.7155C25.09 20.0901 25.1314 20.5023 25.0507 20.8999C24.9701 21.2976 24.7709 21.6629 24.4785 21.9496C24.1861 22.2363 23.8135 22.4315 23.4079 22.5106C23.0023 22.5897 22.5819 22.5491 22.1998 22.394C21.8178 22.2388 21.4912 21.976 21.2615 21.6389C21.0317 21.3018 20.9091 20.9055 20.9091 20.5C20.9091 19.9563 21.1294 19.4349 21.5215 19.0504C21.9136 18.666 22.4455 18.45 23 18.45Z" fill="#7A930D"/>
</svg>
