<svg width="24" height="24" viewBox="0 0 24 24" fill="none" xmlns="http://www.w3.org/2000/svg">
<circle cx="12" cy="12" r="12" fill="#7A930D"/>
<path d="M12.3958 5.31633C12.2853 5.22581 12.145 5.17611 11.9999 5.17611C11.8549 5.17611 11.7146 5.22581 11.6041 5.31633L6.83937 9.21703C6.77191 9.27231 6.71773 9.34105 6.68061 9.4185C6.64348 9.49595 6.62428 9.58025 6.62435 9.66555V15.7646C6.62435 15.827 6.65009 15.8869 6.69591 15.931C6.74174 15.9752 6.80389 15.9999 6.86869 15.9999H9.31213C9.37694 15.9999 9.43909 15.9752 9.48491 15.931C9.53073 15.8869 9.55647 15.827 9.55647 15.7646V12.4701C9.55647 12.1581 9.68519 11.8588 9.91431 11.6381C10.1434 11.4175 10.4542 11.2935 10.7782 11.2935H13.2236C13.384 11.2935 13.5429 11.3239 13.6911 11.3831C13.8393 11.4422 13.974 11.5289 14.0875 11.6381C14.2009 11.7474 14.2909 11.8771 14.3523 12.0198C14.4137 12.1626 14.4453 12.3156 14.4453 12.4701V15.7646C14.4453 15.827 14.4711 15.8869 14.5169 15.931C14.5627 15.9752 14.6248 15.9999 14.6897 15.9999H17.1311C17.1959 15.9999 17.2581 15.9752 17.3039 15.931C17.3497 15.8869 17.3755 15.827 17.3755 15.7646V9.66508C17.3755 9.57986 17.3562 9.49565 17.3191 9.41829C17.282 9.34093 17.2279 9.27226 17.1605 9.21703L12.3958 5.31633ZM10.9712 4.59954C11.2584 4.36444 11.623 4.23535 11.9999 4.23535C12.3768 4.23535 12.7414 4.36444 13.0286 4.59954L17.7933 8.49977C17.9687 8.64335 18.1096 8.82194 18.2062 9.02315C18.3028 9.22436 18.3528 9.4434 18.3529 9.66508V15.7646C18.3529 16.0767 18.2241 16.376 17.995 16.5966C17.7659 16.8173 17.4552 16.9412 17.1311 16.9412H14.6897C14.3656 16.9412 14.0549 16.8173 13.8258 16.5966C13.5966 16.376 13.4679 16.0767 13.4679 15.7646V12.4701C13.4679 12.4077 13.4422 12.3479 13.3964 12.3037C13.3505 12.2596 13.2884 12.2348 13.2236 12.2348H10.7782C10.7134 12.2348 10.6512 12.2596 10.6054 12.3037C10.5596 12.3479 10.5339 12.4077 10.5339 12.4701V15.7646C10.5339 16.0767 10.4051 16.376 10.176 16.5966C9.9469 16.8173 9.63615 16.9412 9.31213 16.9412H6.86869C6.54467 16.9412 6.23392 16.8173 6.00481 16.5966C5.77569 16.376 5.64697 16.0767 5.64697 15.7646V9.66508C5.64699 9.4434 5.69703 9.22436 5.79365 9.02315C5.89027 8.82194 6.03114 8.64335 6.20652 8.49977L10.9712 4.59954Z" fill="#DEF165"/>
</svg>
