<svg width="28" height="28" viewBox="0 0 28 28" fill="none" xmlns="http://www.w3.org/2000/svg">
<rect width="28" height="28" rx="4" fill="#32396E"/>
<path d="M14.4985 6.36124C14.3593 6.24725 14.1827 6.18465 14 6.18465C13.8173 6.18465 13.6407 6.24725 13.5015 6.36124L7.50154 11.2732C7.41659 11.3428 7.34837 11.4294 7.30161 11.5269C7.25486 11.6245 7.23068 11.7306 7.23077 11.838V19.5183C7.23077 19.5969 7.26319 19.6723 7.32089 19.7279C7.37859 19.7835 7.45686 19.8147 7.53846 19.8147H10.6154C10.697 19.8147 10.7753 19.7835 10.833 19.7279C10.8907 19.6723 10.9231 19.5969 10.9231 19.5183V15.3697C10.9231 14.9767 11.0852 14.5999 11.3737 14.322C11.6622 14.0442 12.0535 13.8881 12.4615 13.8881H15.5409C15.743 13.8881 15.943 13.9264 16.1297 14.0008C16.3163 14.0753 16.4859 14.1844 16.6288 14.322C16.7716 14.4596 16.885 14.6229 16.9623 14.8027C17.0396 14.9825 17.0794 15.1751 17.0794 15.3697V19.5183C17.0794 19.5969 17.1118 19.6723 17.1695 19.7279C17.2272 19.7835 17.3055 19.8147 17.3871 19.8147H20.4615C20.5431 19.8147 20.6214 19.7835 20.6791 19.7279C20.7368 19.6723 20.7692 19.5969 20.7692 19.5183V11.8374C20.7692 11.7301 20.745 11.6241 20.6983 11.5267C20.6515 11.4292 20.5833 11.3428 20.4985 11.2732L14.4985 6.36124ZM12.7046 5.45861C13.0662 5.16256 13.5254 5 14 5C14.4746 5 14.9338 5.16256 15.2954 5.45861L21.2954 10.37C21.5162 10.5508 21.6936 10.7757 21.8153 11.0291C21.937 11.2825 22 11.5583 22 11.8374V19.5183C22 19.9113 21.8379 20.2882 21.5494 20.566C21.2609 20.8439 20.8696 21 20.4615 21H17.3871C16.9791 21 16.5877 20.8439 16.2992 20.566C16.0107 20.2882 15.8486 19.9113 15.8486 19.5183V15.3697C15.8486 15.2911 15.8162 15.2157 15.7585 15.1602C15.7008 15.1046 15.6225 15.0734 15.5409 15.0734H12.4615C12.3799 15.0734 12.3017 15.1046 12.244 15.1602C12.1863 15.2157 12.1538 15.2911 12.1538 15.3697V19.5183C12.1538 19.9113 11.9918 20.2882 11.7032 20.566C11.4147 20.8439 11.0234 21 10.6154 21H7.53846C7.13044 21 6.73912 20.8439 6.4506 20.566C6.16209 20.2882 6 19.9113 6 19.5183V11.8374C6.00002 11.5583 6.06304 11.2825 6.1847 11.0291C6.30637 10.7757 6.48377 10.5508 6.70462 10.37L12.7046 5.45861Z" fill="#E2E8F7"/>
</svg>
