<svg width="24" height="24" viewBox="0 0 24 24" fill="none" xmlns="http://www.w3.org/2000/svg">
<circle cx="12" cy="12" r="12" fill="#7A930D"/>
<path d="M12.9633 17.6217C14.4158 16.3054 17 13.6162 17 11.1484C17 9.78297 16.4732 8.47345 15.5355 7.50794C14.5979 6.54242 13.3261 6 12 6C10.6739 6 9.40215 6.54242 8.46447 7.50794C7.52678 8.47345 7 9.78297 7 11.1484C7 13.6162 9.58333 16.3054 11.0367 17.6217C11.3018 17.8653 11.6447 18 12 18C12.3553 18 12.6982 17.8653 12.9633 17.6217ZM10.3333 11.1484C10.3333 10.6933 10.5089 10.2568 10.8215 9.93493C11.134 9.61309 11.558 9.43228 12 9.43228C12.442 9.43228 12.866 9.61309 13.1785 9.93493C13.4911 10.2568 13.6667 10.6933 13.6667 11.1484C13.6667 11.6036 13.4911 12.0401 13.1785 12.3619C12.866 12.6838 12.442 12.8646 12 12.8646C11.558 12.8646 11.134 12.6838 10.8215 12.3619C10.5089 12.0401 10.3333 11.6036 10.3333 11.1484Z" fill="#DEF165"/>
</svg>
