<svg width="48" height="48" viewBox="0 0 48 48" fill="none" xmlns="http://www.w3.org/2000/svg">
<circle cx="24" cy="24" r="24" fill="#CCD7F1"/>
<circle cx="24" cy="24" r="20" fill="#A9BDE7"/>
<path d="M24 16C22.1442 16.0021 20.365 16.7064 19.0527 17.9584C17.7404 19.2104 17.0022 20.9079 17 22.6786C16.9978 24.1255 17.4932 25.5332 18.4102 26.6857C18.4102 26.6857 18.6011 26.9255 18.6323 26.9601L24 33L29.3703 26.9571C29.3983 26.9249 29.5898 26.6857 29.5898 26.6857L29.5904 26.6839C30.507 25.5319 31.0022 24.1249 31 22.6786C30.9978 20.9079 30.2596 19.2104 28.9473 17.9584C27.635 16.7064 25.8558 16.0021 24 16ZM24 25.1071C23.4966 25.1071 23.0044 24.9647 22.5858 24.6979C22.1672 24.431 21.841 24.0517 21.6483 23.6079C21.4556 23.1642 21.4052 22.6759 21.5035 22.2048C21.6017 21.7337 21.8441 21.301 22.2001 20.9613C22.5561 20.6217 23.0096 20.3904 23.5034 20.2967C23.9972 20.203 24.509 20.2511 24.9741 20.4349C25.4392 20.6187 25.8368 20.93 26.1165 21.3293C26.3962 21.7287 26.5455 22.1982 26.5455 22.6786C26.5446 23.3224 26.2762 23.9397 25.799 24.3949C25.3218 24.8502 24.6748 25.1063 24 25.1071Z" fill="#32396E"/>
</svg>
