<svg width="61" height="69" viewBox="0 0 61 69" fill="none" xmlns="http://www.w3.org/2000/svg">
<g clip-path="url(#clip0_2_1616)">
<g clip-path="url(#clip1_2_1616)">
<g clip-path="url(#clip2_2_1616)">
<path d="M41.8541 7.81472C41.9888 7.81472 43.067 8.35378 43.6734 8.55593C43.4713 8.62332 42.9996 8.42117 42.4605 8.21902C42.5953 8.21902 42.8648 8.2864 43.1343 8.42117C42.9996 8.2864 41.9888 7.94948 41.8541 7.81472ZM31.814 5.72583C32.0161 5.65845 34.3745 5.99537 35.4527 6.06275C35.52 5.99537 35.3179 5.99537 35.0484 5.92798C35.3853 5.8606 36.0591 6.06275 36.5308 6.13013C35.1157 6.19752 33.5659 5.79322 32.2183 5.92798C31.7466 5.92798 32.0835 5.79322 31.814 5.72583ZM29.8598 5.72583C31.0727 5.72583 32.0161 5.72583 30.2641 5.8606C30.062 5.79322 29.7925 5.79322 29.8598 5.72583ZM48.9293 11.3186C49.0641 11.3186 49.6031 11.9251 49.8727 12.1272C49.8053 12.1946 49.2662 11.6556 48.9967 11.4534C49.0641 11.5208 48.9967 11.4534 48.9293 11.3186ZM47.5816 10.4427C47.0426 9.97098 46.8404 9.97098 46.773 9.70145C47.2447 9.97098 47.5816 10.2405 47.5816 10.4427ZM38.8892 6.19752C38.9566 6.13013 39.0914 6.2649 39.4283 6.33228C39.024 6.2649 39.0914 6.33228 39.2261 6.46705C38.7544 6.39967 38.6197 6.33228 38.7544 6.19752C39.024 6.33228 39.0914 6.2649 38.8892 6.19752ZM19.7523 7.00612C19.7523 6.93873 20.0219 6.80397 20.224 6.73658C20.0219 6.87135 20.0893 6.93873 20.4262 6.80397C20.4262 6.87135 20.0219 7.00612 19.7523 7.14088C19.8871 7.0735 20.0219 6.87135 19.7523 7.00612ZM40.2369 5.52368C40.0347 5.59107 39.2935 5.18677 38.5523 5.052C38.148 4.91723 40.1695 5.38892 40.2369 5.52368ZM0.480716 38.811C0.885016 40.4956 0.615483 40.4282 0.480716 38.811ZM0.5481 28.7035C0.615483 28.434 0.682866 27.6928 0.75025 27.7602C0.5481 29.3774 0.211183 30.1186 0.1438 31.3315C0.34595 30.2534 0.0764165 31.9379 0.0090332 32.3422C0.0764165 32.8813 0.0764166 32.0053 0.211183 32.1401C0.34595 32.3422 -0.0583502 35.1723 0.0764164 33.6225C-0.0583502 35.0376 0.0764165 36.5874 0.34595 36.9917C0.0090332 39.148 1.69362 43.9996 2.03053 45.0103C2.09792 45.0777 2.03053 44.6734 2.1653 44.9429C2.30007 45.8189 2.90652 46.4254 3.10867 47.3687C3.31082 47.6383 4.11942 49.1207 4.25418 49.4576C4.52371 49.9967 4.65848 49.9293 4.92801 50.4684C5.73661 52.0182 7.0169 53.5006 8.2298 54.9157C12.138 59.4977 18.1351 63.2712 24.8061 64.6189C31.477 66.0339 38.4849 65.0232 43.9429 62.3952C44.2799 62.1931 44.2125 62.1257 44.6168 61.9909C46.5035 61.3845 48.7945 59.4303 50.0748 58.6891C50.6813 58.0153 52.2985 56.8698 52.5006 56.1959C53.6461 55.2526 54.7917 53.7028 55.3981 52.692C55.735 52.1529 56.0046 52.1529 56.1393 51.816C56.0719 51.816 57.2175 50.401 57.5544 49.5924C57.4196 49.5924 57.2175 49.9967 57.2175 49.5924C59.6433 44.9429 60.9909 38.6763 60.2497 34.3637C60.3845 39.687 59.0368 45.6168 56.4762 49.3902C55.3307 51.816 52.9723 54.444 50.816 56.3307C50.4791 56.6676 50.1422 57.0719 49.7379 57.3415C48.4576 58.4196 47.0426 59.2956 45.5601 60.1042C42.0562 62.0583 38.148 63.7429 33.5659 63.8103C41.4498 63.1364 48.525 59.1608 52.4332 54.3092C49.4684 57.2067 48.1881 58.3522 44.8863 60.0368C44.6168 60.5085 42.3931 61.4518 40.9107 61.8561C41.7867 61.4518 43.606 60.778 44.2125 60.2389C39.2935 62.5974 33.8355 63.945 28.7143 63.2038C30.6684 63.2038 33.4312 63.2712 36.0591 62.7995C36.4634 62.6647 36.6656 62.53 37.1372 62.4626C42.2584 61.3171 47.1773 58.8239 50.6813 55.32C48.6598 57.1393 45.6275 59.2956 43.6734 59.9694C45.4928 58.9587 48.7945 57.0045 49.8727 55.5221C47.7164 57.6784 43.6734 59.8346 41.1129 60.778C40.7086 60.8454 41.3824 60.5085 40.7086 60.778C39.9 60.9802 40.2369 60.9802 40.0347 61.1149C36.9351 61.9909 33.3638 62.7321 30.3989 62.4626C29.8598 62.3952 29.6577 62.2604 29.186 62.2604C28.6469 62.1931 28.1753 62.1931 27.5688 62.1931C25.2104 61.9235 22.6498 60.9802 20.7631 60.1716C19.7523 59.6999 18.7416 59.363 17.7308 58.7565C16.9222 58.2848 16.2484 57.7458 15.5746 57.2067C13.014 55.32 10.8577 53.4332 8.83625 50.7379C5.19755 45.6841 3.31082 39.3501 3.58035 33.0835C3.84988 26.8168 6.34306 20.6849 10.3187 16.1702C10.1165 16.3724 10.5882 15.6986 10.9925 15.2943C10.9925 15.429 10.9251 15.6312 11.3968 15.1595C11.8011 14.6878 11.262 15.0247 11.4642 14.7552C15.642 10.1731 22.9194 6.46705 30.3989 6.33228C30.6684 6.13013 31.1401 5.8606 31.6792 5.99537C31.6792 6.06275 31.3423 6.06275 31.3423 6.06275C32.0835 5.99537 32.7573 5.99537 33.0942 6.13013C33.1616 6.06275 32.8247 5.99537 33.0942 5.99537C33.5659 6.13013 33.7007 5.99537 33.9702 6.13013C33.7681 6.13013 33.5659 6.13013 33.4312 6.19752C35.1157 6.19752 36.1939 6.60182 37.8785 6.73658C37.0025 6.53443 36.8003 6.53443 36.1265 6.33228C36.8677 6.46705 37.2046 6.60182 37.5415 6.53443C37.4068 6.53443 37.4742 6.33228 37.6089 6.39967C38.9566 6.73658 39.0914 6.87135 40.5064 7.34303C40.6412 7.20827 39.9 7.14088 39.6978 6.93873C41.0455 7.41042 42.2584 7.74733 43.067 8.2864C42.7974 8.08425 41.9888 7.81472 41.3824 7.54518C41.315 7.61257 41.5845 7.67995 41.6519 7.81472C40.9781 7.4778 40.0347 7.14088 39.0914 7.00612C39.9 7.20827 40.439 7.4778 40.7759 7.61257C40.0347 7.4778 39.0914 7.00612 38.0132 6.80397C39.7652 7.34303 43.067 8.55593 45.0885 9.63406C44.3473 9.16238 43.4713 8.82547 42.9996 8.55593C43.4039 8.62332 43.8756 8.89285 43.8756 8.75808C44.3472 8.96023 44.9537 9.43191 45.2906 9.4993C44.6842 9.095 43.4713 8.48855 43.067 8.2864C48.1207 10.5774 52.6354 14.4183 55.5329 19.3373C55.8024 19.8089 56.2067 20.8871 56.5436 21.0218C56.4762 20.6849 56.2067 20.4828 55.9372 19.9437C56.0719 19.9437 56.0719 19.7416 55.9372 19.5394C55.6676 19.2025 55.9372 19.8089 55.6676 19.472C54.4547 17.2484 52.9723 15.2943 50.6813 13.138C51.9616 14.3509 51.0182 13.4749 50.7487 13.0706C52.5006 14.6204 54.5221 17.2484 55.3981 18.596C55.2633 18.3939 55.196 18.2591 55.2633 18.2591C56.8805 21.0218 57.8913 23.515 58.902 27.0863C58.9694 27.1537 58.902 26.8168 59.0368 27.019C59.7106 29.8491 59.9128 32.2075 59.8454 34.3637C60.3845 30.725 59.1716 25.0648 57.0153 20.6175C56.7458 20.0785 56.7458 20.4828 56.4762 19.8763C56.4762 19.6742 56.2741 19.2699 56.1393 19.0003C53.444 14.553 50.1422 11.386 46.234 8.89285C46.5035 9.02762 47.0426 9.43192 47.0426 9.36453C39.7652 4.58032 31.3423 3.90648 24.4018 5.38892C23.9301 5.59107 23.728 5.79322 23.1889 6.06275C24.1996 5.72583 24.8061 5.65845 25.7495 5.4563C25.9516 5.25415 24.8735 5.52368 25.3452 5.32153C25.4125 5.38892 26.2885 5.18677 26.4907 5.25415C26.4907 5.32153 26.2211 5.38892 26.1538 5.4563C28.3774 4.98462 30.6684 4.91723 32.6226 5.052C31.477 5.11938 29.3882 4.91723 28.7143 5.25415C29.3882 5.18677 30.3315 5.11938 30.938 5.18677C30.1294 5.18677 28.6469 5.25415 27.9731 5.32153C27.9057 5.25415 29.0512 5.11938 28.31 5.11938C27.9731 5.18677 27.434 5.18677 27.2319 5.38892C21.4369 5.92798 15.7767 8.96023 11.8011 12.5315C10.9925 13.2054 10.0491 13.9466 9.4427 14.6878C7.96026 16.3724 7.0169 18.057 5.93876 19.5394C6.6126 18.1244 8.09503 15.9681 9.847 14.1487C11.599 12.3294 13.4857 10.7796 14.4964 9.97098C14.4964 10.2405 16.1136 8.96023 16.7201 8.55593C16.3158 8.89285 16.9896 8.42117 17.1244 8.48855C19.2807 7.20827 21.0326 6.73658 22.9867 5.99537C22.5151 6.13013 22.1108 6.2649 22.0434 6.19752C22.5151 6.06275 22.7846 5.92798 22.7172 5.8606C20.8305 6.39967 17.8656 7.67995 15.5072 9.095C19.7523 6.19752 25.143 4.44555 30.4663 4.37817C35.7896 4.2434 40.9781 5.59107 45.0885 7.74733C47.8512 8.96023 50.4791 11.1839 52.568 13.3401C53.1745 13.8792 52.7028 13.2054 53.5788 14.1487C53.3092 14.014 53.1071 13.8792 53.444 14.2835C53.9831 14.89 53.3092 13.8118 54.1852 14.89C54.1178 14.89 53.8483 14.553 53.8483 14.6878C56.2067 16.7767 58.0261 20.5502 59.1042 23.0433C58.8347 22.0326 58.1608 20.6175 57.6218 19.6068C59.239 22.5717 59.778 24.3236 60.4519 26.9516C60.7214 27.1537 60.3171 26.0082 60.5866 26.5473C60.654 26.9516 60.7214 28.2319 60.9909 28.434C60.7888 27.1537 60.4519 25.6039 60.1823 25.3344C60.3845 25.4691 59.8454 23.7846 59.5085 23.3803C59.3737 22.3021 58.4304 20.4154 57.6218 19.0003C54.7243 13.3401 49.5358 8.6907 43.7408 6.13013C43.7408 5.99537 43.4039 5.8606 43.2691 5.72583C37.5415 3.30003 30.6684 2.6262 24.0649 4.17602C17.3939 5.79322 11.1273 9.63407 6.67998 15.1595C6.88213 14.4857 8.56671 13.2054 8.6341 12.6663C6.67998 14.7552 4.5911 17.5179 3.17605 20.4828C1.69362 23.4476 0.885016 26.4799 0.5481 28.7035Z" fill="white"/>
<g clip-path="url(#clip3_2_1616)">
<g clip-path="url(#clip4_2_1616)">
<g clip-path="url(#clip5_2_1616)">
<g clip-path="url(#clip6_2_1616)">
<g clip-path="url(#clip7_2_1616)">
<g clip-path="url(#clip8_2_1616)">
<g clip-path="url(#clip9_2_1616)">
<path d="M9.15845 47.9377L13.7639 38.1305H15.8739L20.6156 47.9377H18.5262L17.7423 46.2878H12.0137L11.2556 47.9377H9.15845ZM12.7745 44.6507H16.9585L14.8382 40.1942L12.7745 44.6507ZM21.9083 47.9377V40.5335H23.7665V41.6C24.1759 41.2951 24.6086 41.0321 25.0643 40.811C25.5201 40.5883 25.9741 40.4187 26.4264 40.3022L26.9713 42.001C26.2568 42.0729 25.6289 42.2331 25.0875 42.4816C24.5443 42.73 24.104 43.0804 23.7665 43.5327V47.9377H21.9083ZM29.3306 39.5235C29.1455 39.5235 28.9793 39.4978 28.832 39.4464C28.6829 39.3932 28.5561 39.3221 28.4516 39.233C28.3471 39.1422 28.2666 39.0369 28.21 38.9169C28.1535 38.7987 28.1252 38.6728 28.1252 38.5391C28.1252 38.4004 28.1535 38.2719 28.21 38.1536C28.2666 38.0337 28.3471 37.93 28.4516 37.8427C28.5561 37.7553 28.6829 37.685 28.832 37.6319C28.9793 37.5788 29.1455 37.5522 29.3306 37.5522C29.519 37.5522 29.6869 37.5788 29.8343 37.6319C29.9833 37.685 30.1101 37.7553 30.2146 37.8427C30.3192 37.93 30.3997 38.0337 30.4562 38.1536C30.5128 38.2719 30.541 38.4004 30.541 38.5391C30.541 38.6728 30.5128 38.7987 30.4562 38.9169C30.3997 39.0369 30.3192 39.1422 30.2146 39.233C30.1101 39.3221 29.9833 39.3932 29.8343 39.4464C29.6869 39.4978 29.519 39.5235 29.3306 39.5235ZM28.4028 47.9377V40.5335H30.2583V47.9377H28.4028ZM32.2861 45.6041C32.2861 45.2478 32.3632 44.9231 32.5174 44.6301C32.6716 44.3371 32.9037 44.0852 33.2139 43.8745C33.524 43.6638 33.9095 43.501 34.3704 43.3862C34.833 43.2714 35.3718 43.214 35.9869 43.214C36.4427 43.214 36.9224 43.2474 37.4261 43.3142C37.9299 43.3811 38.4499 43.483 38.9861 43.6201C38.9656 43.3871 38.8945 43.1712 38.7728 42.9724C38.6512 42.7737 38.4824 42.6015 38.2665 42.4559C38.0524 42.3119 37.7936 42.2006 37.4904 42.1217C37.1871 42.0412 36.8427 42.001 36.4572 42.001C36.2482 42.001 36.0186 42.0138 35.7685 42.0395C35.5166 42.0652 35.257 42.1029 34.9897 42.1526C34.7225 42.2023 34.4578 42.2648 34.1956 42.3402C33.9335 42.4156 33.6902 42.5055 33.4657 42.6101L32.9003 41.086C33.1796 40.9849 33.4794 40.8933 33.7998 40.811C34.1202 40.7271 34.4475 40.6543 34.7816 40.5926C35.1174 40.5326 35.4524 40.4855 35.7865 40.4512C36.1206 40.4187 36.4444 40.4024 36.7579 40.4024C38.1423 40.4024 39.1712 40.7554 39.8445 41.4613C40.5196 42.1689 40.8571 43.2526 40.8571 44.7123V47.9377H38.999V47.2412C38.8071 47.3543 38.5964 47.4614 38.3668 47.5625C38.1389 47.6619 37.8913 47.7492 37.624 47.8246C37.3567 47.9 37.0689 47.96 36.7605 48.0045C36.4538 48.0474 36.1291 48.0688 35.7865 48.0688C35.2091 48.0688 34.7019 48.0062 34.265 47.8812C33.8281 47.7561 33.4632 47.5822 33.1702 47.3595C32.8772 47.1384 32.6562 46.878 32.5071 46.5782C32.3598 46.28 32.2861 45.9554 32.2861 45.6041ZM34.2419 45.5399C34.2419 45.6615 34.2736 45.778 34.337 45.8894C34.4004 46.0008 34.5006 46.0993 34.6377 46.185C34.7764 46.2706 34.9529 46.3392 35.1671 46.3906C35.383 46.4437 35.6434 46.4702 35.9484 46.4702C36.2756 46.4702 36.5917 46.4411 36.8967 46.3828C37.2017 46.3229 37.4861 46.2449 37.75 46.149C38.0138 46.053 38.252 45.9425 38.4644 45.8174C38.6786 45.6924 38.8568 45.5622 38.999 45.4268V45.1004C38.7146 45.0216 38.4327 44.9548 38.1534 44.8999C37.8759 44.8468 37.6103 44.804 37.3567 44.7714C37.1049 44.7406 36.8667 44.7192 36.6423 44.7072C36.4178 44.6935 36.2225 44.6866 36.0563 44.6866C35.7085 44.6866 35.4198 44.7098 35.1902 44.756C34.9606 44.8023 34.7747 44.864 34.6325 44.9411C34.4903 45.0182 34.3892 45.109 34.3293 45.2135C34.271 45.318 34.2419 45.4268 34.2419 45.5399ZM43.3089 47.9377V40.5335H45.167V41.1606C45.6605 40.8813 46.1317 40.6851 46.5806 40.572C47.0295 40.4589 47.4698 40.4024 47.9015 40.4024C48.467 40.4024 48.9895 40.4846 49.4693 40.6491C49.9507 40.8153 50.3671 41.0612 50.7183 41.3867C51.0695 41.714 51.3445 42.1209 51.5433 42.6075C51.742 43.0941 51.8414 43.6578 51.8414 44.2986V47.9377H49.991V44.5993C49.991 44.1932 49.9336 43.8308 49.8188 43.5121C49.704 43.1917 49.5387 42.9219 49.3228 42.7026C49.1069 42.4816 48.8456 42.3136 48.5389 42.1988C48.2305 42.0841 47.8861 42.0267 47.5058 42.0267C47.3053 42.0267 47.0997 42.0481 46.889 42.0909C46.6765 42.132 46.4692 42.1911 46.267 42.2682C46.0648 42.3453 45.8695 42.4413 45.681 42.5561C45.4926 42.6726 45.3212 42.8037 45.167 42.9493V47.9377H43.3089Z" fill="white"/>
</g>
</g>
</g>
</g>
<g clip-path="url(#clip10_2_1616)">
<g clip-path="url(#clip11_2_1616)">
<path d="M32.3167 20.5356V27.8026V35.0695H35.9501V27.8026H39.5836L32.3167 20.5356Z" fill="white"/>
<path d="M25.0497 20.5356V27.8026H21.4163L28.6832 35.0695V27.8026V20.5356H25.0497Z" fill="white"/>
</g>
</g>
</g>
</g>
</g>
</g>
</g>
</g>
<defs>
<clipPath id="clip0_2_1616">
<rect width="61" height="68.6047" fill="white"/>
</clipPath>
<clipPath id="clip1_2_1616">
<rect width="60.9819" height="68.6047" fill="white" transform="translate(0.0090332)"/>
</clipPath>
<clipPath id="clip2_2_1616">
<rect width="60.9819" height="68.6047" fill="white" transform="translate(0.0090332)"/>
</clipPath>
<clipPath id="clip3_2_1616">
<rect width="42.6873" height="27.5331" fill="white" transform="translate(9.15625 20.5356)"/>
</clipPath>
<clipPath id="clip4_2_1616">
<rect width="42.6873" height="27.5331" fill="white" transform="translate(9.15625 20.5356)"/>
</clipPath>
<clipPath id="clip5_2_1616">
<rect width="42.6873" height="27.5331" fill="white" transform="translate(9.15625 20.5356)"/>
</clipPath>
<clipPath id="clip6_2_1616">
<rect width="42.6873" height="10.5165" fill="white" transform="translate(9.15625 37.5522)"/>
</clipPath>
<clipPath id="clip7_2_1616">
<rect width="42.6873" height="10.5165" fill="white" transform="translate(9.15625 37.5522)"/>
</clipPath>
<clipPath id="clip8_2_1616">
<rect width="42.6873" height="10.5165" fill="white" transform="translate(9.15625 37.5522)"/>
</clipPath>
<clipPath id="clip9_2_1616">
<rect width="42.6873" height="10.5165" fill="white" transform="translate(9.15625 37.5522)"/>
</clipPath>
<clipPath id="clip10_2_1616">
<rect width="18.1673" height="14.5339" fill="white" transform="translate(21.4163 20.5356)"/>
</clipPath>
<clipPath id="clip11_2_1616">
<rect width="18.1673" height="14.5339" fill="white" transform="translate(21.4163 20.5356)"/>
</clipPath>
</defs>
</svg>
