<svg width="54" height="61" viewBox="0 0 54 61" fill="none" xmlns="http://www.w3.org/2000/svg">
<g clip-path="url(#clip0_258_37)">
<g clip-path="url(#clip1_258_37)">
<g clip-path="url(#clip2_258_37)">
<path d="M37.051 6.91798C37.1703 6.91798 38.1247 7.39518 38.6615 7.57414C38.4826 7.63379 38.065 7.45483 37.5878 7.27588C37.7071 7.27588 37.9457 7.33553 38.1843 7.45483C38.065 7.33553 37.1703 7.03728 37.051 6.91798ZM28.163 5.0688C28.3419 5.00915 30.4297 5.3074 31.3841 5.36706C31.4438 5.3074 31.2648 5.3074 31.0262 5.24775C31.3245 5.1881 31.921 5.36706 32.3385 5.42671C31.0859 5.48636 29.7139 5.12845 28.5209 5.24775C28.1033 5.24775 28.4016 5.12845 28.163 5.0688ZM26.4331 5.0688C27.5068 5.0688 28.3419 5.0688 26.791 5.1881C26.6121 5.12845 26.3735 5.12845 26.4331 5.0688ZM43.3143 10.0198C43.4336 10.0198 43.9108 10.5567 44.1494 10.7356C44.0898 10.7953 43.6125 10.3181 43.3739 10.1391C43.4336 10.1988 43.3739 10.1391 43.3143 10.0198ZM42.1213 9.24436C41.6441 8.8268 41.4651 8.8268 41.4055 8.5882C41.823 8.8268 42.1213 9.06541 42.1213 9.24436ZM34.4263 5.48636C34.486 5.42671 34.6053 5.54601 34.9035 5.60566C34.5456 5.54601 34.6053 5.60566 34.7246 5.72496C34.307 5.66531 34.1877 5.60566 34.307 5.48636C34.5456 5.60566 34.6053 5.54601 34.4263 5.48636ZM17.4855 6.20217C17.4855 6.14252 17.7241 6.02321 17.9031 5.96356C17.7241 6.08287 17.7838 6.14252 18.082 6.02321C18.082 6.08286 17.7241 6.20217 17.4855 6.32147C17.6048 6.26182 17.7241 6.08287 17.4855 6.20217ZM35.6193 4.88985C35.4404 4.9495 34.7842 4.59159 34.1281 4.47229C33.7702 4.35299 35.5597 4.77055 35.6193 4.88985ZM0.425368 34.3573C0.783273 35.8486 0.54467 35.789 0.425368 34.3573ZM0.485019 25.4097C0.54467 25.1711 0.60432 24.515 0.663971 24.5746C0.485019 26.0062 0.186765 26.6624 0.127114 27.7361C0.306066 26.7817 0.0674633 28.273 0.0078125 28.6309C0.0674633 29.1081 0.0674634 28.3326 0.186765 28.4519C0.306067 28.6309 -0.0518384 31.1362 0.0674632 29.7642C-0.0518384 31.0169 0.0674633 32.3889 0.306067 32.7468C0.0078125 34.6556 1.49908 38.9505 1.79734 39.8452C1.85699 39.9049 1.79734 39.547 1.91664 39.7856C2.03594 40.561 2.5728 41.0979 2.75175 41.933C2.9307 42.1716 3.64651 43.4839 3.76581 43.7822C4.00442 44.2594 4.12372 44.1997 4.36232 44.6769C5.07813 46.0489 6.2115 47.3612 7.28521 48.6139C10.745 52.6701 16.0539 56.0106 21.9593 57.2036C27.8647 58.4563 34.0684 57.5615 38.9001 55.2351C39.1984 55.0562 39.1387 54.9965 39.4966 54.8772C41.1669 54.3404 43.195 52.6105 44.3284 51.9543C44.8652 51.3578 46.2968 50.3438 46.4758 49.7473C47.4899 48.9121 48.5039 47.5402 49.0408 46.6454C49.339 46.1682 49.5776 46.1682 49.6969 45.8699C49.6373 45.8699 50.6513 44.6173 50.9496 43.9015C50.8303 43.9015 50.6513 44.2594 50.6513 43.9015C52.7988 39.7856 53.9918 34.238 53.3356 30.4204C53.4549 35.1328 52.2619 40.3821 49.9952 43.7225C48.9811 45.8699 46.8933 48.1963 44.9845 49.8666C44.6863 50.1648 44.388 50.5227 44.0301 50.7613C42.8967 51.7157 41.6441 52.4912 40.3318 53.207C37.2299 54.9369 33.7702 56.4281 29.7139 56.4878C36.6931 55.8913 42.9564 52.3719 46.4161 48.077C43.7915 50.642 42.6581 51.6561 39.7352 53.1473C39.4966 53.5649 37.5282 54.4 36.2158 54.7579C36.9913 54.4 38.6019 53.8035 39.1387 53.3263C34.7842 55.4141 29.9525 56.6071 25.4191 55.9509C27.1489 55.9509 29.5946 56.0106 31.921 55.593C32.2789 55.4737 32.4578 55.3544 32.8754 55.2948C37.4089 54.2807 41.7634 52.0736 44.8652 48.9718C43.0757 50.5824 40.3914 52.4912 38.6615 53.0877C40.2721 52.1929 43.195 50.4631 44.1494 49.1507C42.2406 51.0596 38.6615 52.9684 36.3948 53.8035C36.0369 53.8632 36.6334 53.5649 36.0369 53.8035C35.3211 53.9825 35.6193 53.9825 35.4404 54.1018C32.6965 54.8772 29.535 55.5334 26.9103 55.2948C26.4331 55.2351 26.2542 55.1158 25.8366 55.1158C25.3594 55.0562 24.9418 55.0562 24.405 55.0562C22.3172 54.8176 20.0505 53.9825 18.3803 53.2666C17.4855 52.8491 16.5907 52.5508 15.696 52.014C14.9802 51.5964 14.3837 51.1192 13.7871 50.642C11.5204 48.9718 9.61159 47.3016 7.82207 44.9155C4.60092 40.4417 2.9307 34.8346 3.16931 29.287C3.40791 23.7395 5.61499 18.3113 9.13438 14.3147C8.95543 14.4936 9.37299 13.8971 9.73089 13.5392C9.73089 13.6585 9.67124 13.8375 10.0888 13.4199C10.4467 13.0024 9.9695 13.3006 10.1484 13.062C13.8468 9.00575 20.2891 5.72496 26.9103 5.60566C27.1489 5.42671 27.5665 5.1881 28.0437 5.3074C28.0437 5.36706 27.7454 5.36706 27.7454 5.36706C28.4016 5.3074 28.9981 5.3074 29.2964 5.42671C29.356 5.36706 29.0578 5.3074 29.2964 5.3074C29.7139 5.42671 29.8332 5.3074 30.0718 5.42671C29.8929 5.42671 29.7139 5.42671 29.5946 5.48636C31.0859 5.48636 32.0403 5.84426 33.5316 5.96356C32.7561 5.78461 32.5771 5.78461 31.9806 5.60566C32.6368 5.72496 32.9351 5.84426 33.2333 5.78461C33.114 5.78461 33.1737 5.60566 33.293 5.66531C34.486 5.96356 34.6053 6.08287 35.8579 6.50042C35.9772 6.38112 35.3211 6.32147 35.1421 6.14252C36.3352 6.56007 37.4089 6.85833 38.1247 7.33553C37.8861 7.15658 37.1703 6.91798 36.6334 6.67937C36.5738 6.73902 36.8124 6.79867 36.872 6.91798C36.2755 6.61972 35.4404 6.32147 34.6053 6.20217C35.3211 6.38112 35.7983 6.61972 36.0965 6.73902C35.4404 6.61972 34.6053 6.20217 33.6509 6.02321C35.2018 6.50042 38.1247 7.57413 39.9142 8.52855C39.258 8.11099 38.4826 7.81274 38.065 7.57414C38.4229 7.63379 38.8405 7.87239 38.8405 7.75309C39.258 7.93204 39.7949 8.3496 40.0932 8.40925C39.5563 8.05134 38.4826 7.51448 38.1247 7.33553C42.5985 9.36366 46.5951 12.7638 49.1601 17.1183C49.3987 17.5358 49.7566 18.4902 50.0548 18.6095C49.9952 18.3113 49.7566 18.1323 49.518 17.6551C49.6373 17.6551 49.6373 17.4762 49.518 17.2972C49.2794 16.999 49.518 17.5358 49.2794 17.2376C48.2057 15.2691 46.8933 13.5392 44.8652 11.6304C45.9986 12.7041 45.1635 11.9286 44.9249 11.5707C46.4758 12.9427 48.2653 15.2691 49.0408 16.4621C48.9215 16.2832 48.8618 16.1639 48.9215 16.1639C50.3531 18.6095 51.2479 20.8166 52.1426 23.9781C52.2023 24.0378 52.1426 23.7395 52.2619 23.9185C52.8584 26.4238 53.0374 28.5116 52.9777 30.4204C53.4549 27.1992 52.3812 22.1886 50.4724 18.2516C50.2338 17.7744 50.2338 18.1323 49.9952 17.5955C49.9952 17.4165 49.8162 17.0586 49.6969 16.82C47.3109 12.8831 44.388 10.0795 40.9283 7.87239C41.1669 7.99169 41.6441 8.3496 41.6441 8.28994C35.2018 4.05474 27.7454 3.45823 21.6014 4.77055C21.1838 4.9495 21.0049 5.12845 20.5277 5.36706C21.4225 5.0688 21.9593 5.00915 22.7944 4.8302C22.9734 4.65125 22.019 4.88985 22.4365 4.7109C22.4962 4.77055 23.2716 4.5916 23.4506 4.65125C23.4506 4.7109 23.212 4.77055 23.1523 4.8302C25.1208 4.41264 27.1489 4.35299 28.8788 4.47229C27.8647 4.53194 26.0156 4.35299 25.4191 4.65125C26.0156 4.5916 26.8507 4.53194 27.3875 4.5916C26.6717 4.5916 25.3594 4.65125 24.7629 4.7109C24.7032 4.65125 25.7173 4.53194 25.0611 4.53194C24.7629 4.59159 24.2857 4.59159 24.1067 4.77055C18.9768 5.24775 13.9661 7.93204 10.4467 11.0935C9.73089 11.69 8.89578 12.3462 8.35892 13.0024C7.04661 14.4936 6.2115 15.9849 5.25708 17.2972C5.85359 16.0445 7.16591 14.1357 8.71683 12.5252C10.2678 10.9146 11.938 9.54261 12.8327 8.8268C12.8327 9.0654 14.2644 7.93204 14.8012 7.57414C14.4433 7.87239 15.0398 7.45483 15.1591 7.51448C17.0679 6.38112 18.6189 5.96356 20.3487 5.3074C19.9312 5.42671 19.5733 5.54601 19.5136 5.48636C19.9312 5.36706 20.1698 5.24775 20.1101 5.1881C18.4399 5.66531 15.8153 6.79867 13.7275 8.05134C17.4855 5.48636 22.2576 3.93544 26.97 3.87579C31.6824 3.75648 36.2755 4.9495 39.9142 6.85833C42.3599 7.93204 44.6863 9.90052 46.5354 11.8093C47.0723 12.2865 46.6547 11.69 47.4302 12.5252C47.1916 12.4059 47.0126 12.2865 47.3109 12.6445C47.7881 13.1813 47.1916 12.2269 47.9671 13.1813C47.9074 13.1813 47.6688 12.8831 47.6688 13.0024C49.7566 14.8515 51.3672 18.192 52.3216 20.3991C52.083 19.5043 51.4865 18.2516 51.0092 17.3569C52.4409 19.9815 52.9181 21.5324 53.5146 23.8588C53.7532 24.0378 53.3953 23.0237 53.6339 23.5009C53.6935 23.8588 53.7532 24.9922 53.9918 25.1711C53.8128 24.0378 53.5146 22.6658 53.276 22.4272C53.4549 22.5465 52.9777 21.0552 52.6795 20.6973C52.5602 19.7429 51.7251 18.0727 51.0092 16.82C48.4443 11.8093 43.8512 7.69344 38.7212 5.42671C38.7212 5.3074 38.4229 5.1881 38.3036 5.0688C33.2333 2.92137 27.1489 2.32486 21.3031 3.69683C15.3977 5.12845 9.85019 8.52855 5.91324 13.4199C6.09219 12.8234 7.58346 11.69 7.64311 11.2128C5.91324 13.062 4.06407 15.5077 2.8114 18.1323C1.49908 20.757 0.783273 23.4413 0.485019 25.4097Z" fill="white"/>
<g clip-path="url(#clip3_258_37)">
<g clip-path="url(#clip4_258_37)">
<g clip-path="url(#clip5_258_37)">
<g clip-path="url(#clip6_258_37)">
<g clip-path="url(#clip7_258_37)">
<g clip-path="url(#clip8_258_37)">
<g clip-path="url(#clip9_258_37)">
<path d="M8.10693 42.4366L12.1839 33.7548H14.0518L18.2493 42.4366H16.3997L15.7058 40.976H10.6346L9.96342 42.4366H8.10693ZM11.308 39.5268H15.0119L13.1349 35.5817L11.308 39.5268ZM19.3937 42.4366V35.882H21.0386V36.8262C21.4011 36.5562 21.7841 36.3234 22.1875 36.1278C22.591 35.9306 22.9929 35.7804 23.3933 35.6773L23.8757 37.1811C23.2432 37.2448 22.6873 37.3866 22.208 37.6066C21.7272 37.8265 21.3374 38.1367 21.0386 38.5371V42.4366H19.3937ZM25.9642 34.9879C25.8004 34.9879 25.6533 34.9652 25.5228 34.9197C25.3909 34.8727 25.2786 34.8097 25.1861 34.7308C25.0936 34.6505 25.0223 34.5572 24.9723 34.451C24.9222 34.3463 24.8972 34.2349 24.8972 34.1166C24.8972 33.9937 24.9222 33.8799 24.9723 33.7753C25.0223 33.6691 25.0936 33.5774 25.1861 33.5C25.2786 33.4227 25.3909 33.3605 25.5228 33.3134C25.6533 33.2664 25.8004 33.2429 25.9642 33.2429C26.1311 33.2429 26.2797 33.2664 26.4101 33.3134C26.5421 33.3605 26.6543 33.4227 26.7468 33.5C26.8394 33.5774 26.9107 33.6691 26.9607 33.7753C27.0108 33.8799 27.0358 33.9937 27.0358 34.1166C27.0358 34.2349 27.0108 34.3463 26.9607 34.451C26.9107 34.5572 26.8394 34.6505 26.7468 34.7308C26.6543 34.8097 26.5421 34.8727 26.4101 34.9197C26.2797 34.9652 26.1311 34.9879 25.9642 34.9879ZM25.1429 42.4366V35.882H26.7855V42.4366H25.1429ZM28.5806 40.3708C28.5806 40.0553 28.6488 39.7679 28.7853 39.5086C28.9218 39.2492 29.1274 39.0262 29.4019 38.8397C29.6764 38.6531 30.0177 38.509 30.4257 38.4074C30.8352 38.3058 31.3122 38.255 31.8567 38.255C32.2602 38.255 32.6849 38.2845 33.1308 38.3437C33.5767 38.4029 34.037 38.4931 34.5118 38.6144C34.4936 38.4082 34.4306 38.2171 34.3229 38.0411C34.2153 37.8652 34.0659 37.7127 33.8747 37.5838C33.6852 37.4564 33.4561 37.3578 33.1877 37.2881C32.9192 37.2168 32.6143 37.1811 32.2731 37.1811C32.088 37.1811 31.8848 37.1925 31.6633 37.2152C31.4404 37.238 31.2106 37.2714 30.974 37.3154C30.7374 37.3593 30.503 37.4147 30.271 37.4814C30.0389 37.5482 29.8235 37.6278 29.6249 37.7203L29.1243 36.3712C29.3716 36.2817 29.637 36.2006 29.9206 36.1278C30.2042 36.0534 30.4939 35.989 30.7897 35.9344C31.087 35.8813 31.3835 35.8396 31.6793 35.8092C31.975 35.7804 32.2617 35.766 32.5393 35.766C33.7648 35.766 34.6756 36.0785 35.2717 36.7034C35.8693 37.3298 36.168 38.2891 36.168 39.5814V42.4366H34.5231V41.8201C34.3533 41.9202 34.1667 42.015 33.9635 42.1044C33.7617 42.1924 33.5426 42.2698 33.306 42.3365C33.0694 42.4032 32.8145 42.4563 32.5415 42.4958C32.27 42.5337 31.9826 42.5526 31.6793 42.5526C31.1681 42.5526 30.7192 42.4973 30.3324 42.3866C29.9456 42.2758 29.6226 42.1219 29.3632 41.9247C29.1039 41.7291 28.9082 41.4985 28.7762 41.2331C28.6458 40.9692 28.5806 40.6817 28.5806 40.3708ZM30.3119 40.3139C30.3119 40.4216 30.34 40.5248 30.3961 40.6234C30.4522 40.7219 30.541 40.8092 30.6623 40.885C30.7852 40.9608 30.9414 41.0215 31.131 41.067C31.3221 41.114 31.5526 41.1375 31.8226 41.1375C32.1123 41.1375 32.3921 41.1117 32.6621 41.0602C32.9321 41.0071 33.1839 40.9381 33.4174 40.8531C33.651 40.7682 33.8619 40.6704 34.0499 40.5597C34.2395 40.4489 34.3973 40.3337 34.5231 40.2138V39.9249C34.2714 39.8551 34.0219 39.796 33.7746 39.7474C33.5289 39.7004 33.2938 39.6625 33.0694 39.6337C32.8464 39.6064 32.6356 39.5874 32.4369 39.5768C32.2382 39.5647 32.0653 39.5586 31.9182 39.5586C31.6103 39.5586 31.3547 39.5791 31.1514 39.62C30.9482 39.661 30.7836 39.7156 30.6577 39.7838C30.5319 39.8521 30.4424 39.9325 30.3893 40.025C30.3377 40.1175 30.3119 40.2138 30.3119 40.3139ZM38.3385 42.4366V35.882H39.9834V36.4372C40.4202 36.1899 40.8373 36.0163 41.2347 35.9162C41.6321 35.8161 42.0219 35.766 42.4041 35.766C42.9046 35.766 43.3672 35.8388 43.7919 35.9844C44.2181 36.1315 44.5867 36.3492 44.8976 36.6374C45.2085 36.9271 45.452 37.2873 45.6279 37.718C45.8039 38.1488 45.8918 38.6478 45.8918 39.2151V42.4366H44.2538V39.4813C44.2538 39.1218 44.203 38.801 44.1013 38.5189C43.9997 38.2353 43.8533 37.9964 43.6622 37.8022C43.4711 37.6066 43.2398 37.4579 42.9683 37.3563C42.6953 37.2547 42.3905 37.2039 42.0537 37.2039C41.8763 37.2039 41.6943 37.2228 41.5077 37.2608C41.3196 37.2972 41.1361 37.3495 40.9571 37.4177C40.7782 37.486 40.6053 37.5709 40.4384 37.6725C40.2716 37.7757 40.1199 37.8917 39.9834 38.0206V42.4366H38.3385Z" fill="white"/>
</g>
</g>
</g>
</g>
<g clip-path="url(#clip10_258_37)">
<g clip-path="url(#clip11_258_37)">
<path d="M28.6079 18.1792V24.6122V31.0452H31.8244V24.6122H35.0409L28.6079 18.1792Z" fill="white"/>
<path d="M22.175 18.1792V24.6122H18.9585L25.3915 31.0452V24.6122V18.1792H22.175Z" fill="white"/>
</g>
</g>
</g>
</g>
</g>
</g>
</g>
</g>
<defs>
<clipPath id="clip0_258_37">
<rect width="54" height="60.732" fill="white"/>
</clipPath>
<clipPath id="clip1_258_37">
<rect width="53.984" height="60.732" fill="white" transform="translate(0.0078125)"/>
</clipPath>
<clipPath id="clip2_258_37">
<rect width="53.984" height="60.732" fill="white" transform="translate(0.0078125)"/>
</clipPath>
<clipPath id="clip3_258_37">
<rect width="37.7888" height="24.3736" fill="white" transform="translate(8.10547 18.1792)"/>
</clipPath>
<clipPath id="clip4_258_37">
<rect width="37.7888" height="24.3736" fill="white" transform="translate(8.10547 18.1792)"/>
</clipPath>
<clipPath id="clip5_258_37">
<rect width="37.7888" height="24.3736" fill="white" transform="translate(8.10547 18.1792)"/>
</clipPath>
<clipPath id="clip6_258_37">
<rect width="37.7888" height="9.30972" fill="white" transform="translate(8.10547 33.2429)"/>
</clipPath>
<clipPath id="clip7_258_37">
<rect width="37.7888" height="9.30972" fill="white" transform="translate(8.10547 33.2429)"/>
</clipPath>
<clipPath id="clip8_258_37">
<rect width="37.7888" height="9.30972" fill="white" transform="translate(8.10547 33.2429)"/>
</clipPath>
<clipPath id="clip9_258_37">
<rect width="37.7888" height="9.30972" fill="white" transform="translate(8.10547 33.2429)"/>
</clipPath>
<clipPath id="clip10_258_37">
<rect width="16.0825" height="12.866" fill="white" transform="translate(18.9585 18.1792)"/>
</clipPath>
<clipPath id="clip11_258_37">
<rect width="16.0825" height="12.866" fill="white" transform="translate(18.9585 18.1792)"/>
</clipPath>
</defs>
</svg>
