<svg width="14" height="15" viewBox="0 0 14 15" fill="none" xmlns="http://www.w3.org/2000/svg">
<path d="M6.65566 0C6.86771 0.00023559 7.07166 0.0815659 7.22586 0.227374C7.38005 0.373181 7.47284 0.572461 7.48526 0.784496C7.49769 0.99653 7.42882 1.20532 7.29272 1.36819C7.15662 1.53107 6.96356 1.63575 6.753 1.66083L6.65566 1.66667H2.49587C2.2921 1.66669 2.09542 1.74163 1.94314 1.87726C1.79087 2.0129 1.69358 2.19979 1.66974 2.4025L1.66391 2.5V12.5C1.66394 12.7041 1.73875 12.9011 1.87416 13.0536C2.00957 13.2062 2.19616 13.3036 2.39853 13.3275L2.49587 13.3333H6.23968C6.45173 13.3336 6.65569 13.4149 6.80988 13.5607C6.96407 13.7065 7.05686 13.9058 7.06928 14.1178C7.08171 14.3299 7.01284 14.5386 6.87674 14.7015C6.74064 14.8644 6.54758 14.9691 6.33702 14.9942L6.23968 15H2.49587C1.85925 15 1.24668 14.7564 0.783487 14.3189C0.320298 13.8815 0.0415084 13.2832 0.00415989 12.6467L3.87729e-09 12.5V2.5C-3.54595e-05 1.86232 0.243202 1.24874 0.679945 0.784783C1.11669 0.320828 1.71392 0.0415771 2.34945 0.00416676L2.49587 0H6.65566ZM11.4036 4.55333L13.7564 6.91083C13.9124 7.06711 14 7.27903 14 7.5C14 7.72097 13.9124 7.93289 13.7564 8.08917L11.4036 10.4467C11.2475 10.6029 11.0358 10.6907 10.8152 10.6906C10.5945 10.6905 10.3828 10.6026 10.2268 10.4462C10.0708 10.2899 9.98324 10.0778 9.98332 9.85679C9.9834 9.63573 10.0711 9.42376 10.2273 9.2675L11.1599 8.33333H6.65566C6.43501 8.33333 6.2234 8.24554 6.06738 8.08926C5.91135 7.93297 5.8237 7.72101 5.8237 7.5C5.8237 7.27899 5.91135 7.06702 6.06738 6.91074C6.2234 6.75446 6.43501 6.66667 6.65566 6.66667H11.1599L10.2273 5.7325C10.0711 5.57624 9.9834 5.36427 9.98332 5.14321C9.98324 4.92215 10.0708 4.71012 10.2268 4.55375C10.3828 4.39738 10.5945 4.30949 10.8152 4.30941C11.0358 4.30934 11.2475 4.39708 11.4036 4.55333Z" fill="white"/>
</svg>
