<svg width="44" height="47" viewBox="0 0 44 47" fill="none" xmlns="http://www.w3.org/2000/svg">
<path d="M43.9577 37.8445C43.8552 37.4811 43.6156 37.1716 43.2895 36.9814C42.9633 36.7911 42.5761 36.7349 42.2093 36.8246L38.5814 37.8008C40.5666 34.8744 41.7703 31.489 42.0782 27.9662C42.3757 24.6704 41.8938 21.3507 40.6714 18.2756C39.4489 15.2004 37.5201 12.4559 35.041 10.2639C34.7544 10.0269 34.388 9.90844 34.0169 9.93282C33.6458 9.9572 33.298 10.1226 33.0449 10.3951C32.7902 10.685 32.661 11.0642 32.6856 11.4494C32.7102 11.8345 32.8866 12.1942 33.176 12.4494C35.3123 14.3351 36.9743 16.6975 38.0273 19.3453C39.0804 21.993 39.4948 24.8516 39.2371 27.6894C38.9875 30.6784 37.985 33.5555 36.3231 36.0524L35.9589 32.3954C35.9863 32.1802 35.9654 31.9615 35.8976 31.7555C35.8297 31.5494 35.7167 31.361 35.5668 31.2042C35.4169 31.0473 35.2338 30.926 35.031 30.8489C34.8282 30.7719 34.6107 30.7411 34.3945 30.7588C34.1782 30.7766 33.9687 30.8424 33.7811 30.9515C33.5936 31.0606 33.4327 31.2102 33.3104 31.3893C33.188 31.5685 33.1073 31.7727 33.0739 31.9871C33.0406 32.2015 33.0556 32.4207 33.1178 32.6285L33.8462 42.0115L42.9523 39.5929C43.3131 39.4874 43.6191 39.2466 43.8064 38.9207C43.9937 38.5949 44.0479 38.2093 43.9577 37.8445Z" fill="#7A930D"/>
<path d="M1.43849 24.4386C1.63214 24.5631 1.85117 24.6427 2.07956 24.6717C2.4598 24.7215 2.84438 24.6195 3.14986 24.3877C3.45535 24.1558 3.65711 23.8129 3.71137 23.4332C4.31339 18.9882 6.57238 14.9347 10.036 12.0844C13.4995 9.23412 17.912 7.79746 22.3898 8.06214L19.1262 10.2913C18.8953 10.4653 18.7213 10.704 18.6265 10.9771C18.5317 11.2502 18.5202 11.5454 18.5937 11.825C18.6671 12.1047 18.822 12.3561 19.0388 12.5474C19.2556 12.7387 19.5244 12.8612 19.811 12.8993C20.1392 12.9293 20.4679 12.8471 20.7434 12.6662L28.5091 7.33365L21.8653 0.660702C21.7471 0.479544 21.59 0.326986 21.4055 0.214103C21.2209 0.101219 21.0136 0.0308437 20.7984 0.00808553C20.5833 -0.0146726 20.3658 0.0107577 20.1618 0.0825301C19.9577 0.154303 19.7722 0.270616 19.6187 0.423026C19.4651 0.575436 19.3475 0.760118 19.2742 0.963664C19.201 1.16721 19.174 1.38451 19.1952 1.59979C19.2164 1.81507 19.2853 2.02293 19.3968 2.20828C19.5084 2.39362 19.6598 2.5518 19.8401 2.67133L22.317 5.14819C17.1459 4.90093 12.0701 6.60133 8.09145 9.91368C4.11285 13.226 1.52064 17.9096 0.826562 23.0399C0.789206 23.3068 0.826625 23.5788 0.934657 23.8258C1.04269 24.0727 1.2171 24.2848 1.43849 24.4386Z" fill="#7A930D"/>
<path d="M26.8248 43.1631C24.5497 43.8899 22.1497 44.1428 19.7731 43.9062C16.8786 43.6225 14.0966 42.6386 11.6674 41.0394C9.23817 39.4402 7.23465 37.2738 5.82981 34.7272L9.45768 36.0822C9.7921 36.1402 10.1363 36.0797 10.4308 35.911C10.7253 35.7423 10.9517 35.4761 11.0709 35.1583C11.1901 34.8405 11.1945 34.491 11.0836 34.1703C10.9726 33.8495 10.7531 33.5776 10.463 33.4014L3.77547 30.9245L1.63372 30.1523L0.0164757 39.4041C-0.0395906 39.7738 0.0486319 40.1509 0.262884 40.4574C0.477136 40.7639 0.801014 40.9762 1.16749 41.0505H1.41517C1.75809 41.0568 2.09221 40.9418 2.35872 40.726C2.62523 40.5101 2.80704 40.2071 2.87215 39.8704L3.48408 36.3736C5.13196 39.2603 7.44657 41.7108 10.2346 43.5205C13.0227 45.3302 16.2033 46.4466 19.5108 46.7764C22.2761 47.0505 25.0682 46.7529 27.7136 45.9023C28.0504 45.7628 28.3227 45.5021 28.4767 45.1716C28.6308 44.8412 28.6553 44.465 28.5455 44.1174C28.4357 43.7697 28.1996 43.4759 27.8838 43.2938C27.5679 43.1118 27.1953 43.0547 26.8394 43.134L26.8248 43.1631Z" fill="#7A930D"/>
<path d="M27.2143 18.4922H15.5585C15.1721 18.4922 14.8015 18.6457 14.5283 18.9189C14.2551 19.1922 14.1016 19.5627 14.1016 19.9492V31.605C14.1016 31.9914 14.2551 32.362 14.5283 32.6352C14.8015 32.9084 15.1721 33.0619 15.5585 33.0619H27.2143C27.6008 33.0619 27.9714 32.9084 28.2446 32.6352C28.5178 32.362 28.6713 31.9914 28.6713 31.605V19.9492C28.6713 19.5627 28.5178 19.1922 28.2446 18.9189C27.9714 18.6457 27.6008 18.4922 27.2143 18.4922ZM25.7574 30.148H17.0155V21.4061H25.7574V30.148Z" fill="#7A930D"/>
</svg>
