<svg width="27" height="27" viewBox="0 0 27 27" fill="none" xmlns="http://www.w3.org/2000/svg">
<circle cx="13.5" cy="13.5" r="13.5" fill="#7A930D"/>
<path d="M18.7 9H8.3C7.585 9 7.0065 9.50625 7.0065 10.125L7 16.875C7 17.4938 7.585 18 8.3 18H18.7C19.415 18 20 17.4938 20 16.875V10.125C20 9.50625 19.415 9 18.7 9ZM18.44 11.3906L13.8445 13.8769C13.6365 13.9894 13.3635 13.9894 13.1555 13.8769L8.56 11.3906C8.49482 11.359 8.43775 11.3162 8.39223 11.2649C8.34671 11.2136 8.31369 11.1548 8.29517 11.0921C8.27666 11.0295 8.27303 10.9642 8.2845 10.9003C8.29598 10.8364 8.32232 10.7751 8.36193 10.7203C8.40155 10.6654 8.45361 10.6181 8.51497 10.5812C8.57633 10.5443 8.64572 10.5185 8.71892 10.5054C8.79213 10.4924 8.86763 10.4923 8.94087 10.5052C9.01411 10.5181 9.08355 10.5438 9.145 10.5806L13.5 12.9375L17.855 10.5806C17.9164 10.5438 17.9859 10.5181 18.0591 10.5052C18.1324 10.4923 18.2079 10.4924 18.2811 10.5054C18.3543 10.5185 18.4237 10.5443 18.485 10.5812C18.5464 10.6181 18.5985 10.6654 18.6381 10.7203C18.6777 10.7751 18.704 10.8364 18.7155 10.9003C18.727 10.9642 18.7233 11.0295 18.7048 11.0921C18.6863 11.1548 18.6533 11.2136 18.6078 11.2649C18.5623 11.3162 18.5052 11.359 18.44 11.3906Z" fill="#445215"/>
</svg>
