<svg width="24" height="24" viewBox="0 0 24 24" fill="none" xmlns="http://www.w3.org/2000/svg">
<circle cx="12" cy="12" r="12" fill="#7A930D"/>
<path d="M4.75 8H19.25C19.4489 8 19.6397 8.07902 19.7803 8.21967C19.921 8.36032 20 8.55109 20 8.75C20 8.94891 19.921 9.13968 19.7803 9.28033C19.6397 9.42098 19.4489 9.5 19.25 9.5H4.75C4.55109 9.5 4.36032 9.42098 4.21967 9.28033C4.07902 9.13968 4 8.94891 4 8.75C4 8.55109 4.07902 8.36032 4.21967 8.21967C4.36032 8.07902 4.55109 8 4.75 8ZM7 12.75C7 12.5511 7.07902 12.3603 7.21967 12.2197C7.36032 12.079 7.55109 12 7.75 12H16.25C16.4489 12 16.6397 12.079 16.7803 12.2197C16.921 12.3603 17 12.5511 17 12.75C17 12.9489 16.921 13.1397 16.7803 13.2803C16.6397 13.421 16.4489 13.5 16.25 13.5H7.75C7.55109 13.5 7.36032 13.421 7.21967 13.2803C7.07902 13.1397 7 12.9489 7 12.75ZM10 16.75C10 16.5511 10.079 16.3603 10.2197 16.2197C10.3603 16.079 10.5511 16 10.75 16H13.25C13.4489 16 13.6397 16.079 13.7803 16.2197C13.921 16.3603 14 16.5511 14 16.75C14 16.9489 13.921 17.1397 13.7803 17.2803C13.6397 17.421 13.4489 17.5 13.25 17.5H10.75C10.5511 17.5 10.3603 17.421 10.2197 17.2803C10.079 17.1397 10 16.9489 10 16.75Z" fill="#DEF165"/>
</svg>
