<svg width="48" height="48" viewBox="0 0 48 48" fill="none" xmlns="http://www.w3.org/2000/svg">
<circle cx="24" cy="24" r="24" fill="#CCD7F1"/>
<circle cx="24" cy="24" r="20" fill="#A9BDE7"/>
<path d="M31.7143 18H16.2857C15.9447 18 15.6177 18.1355 15.3766 18.3766C15.1355 18.6177 15 18.9447 15 19.2857V29.5714C15 29.9124 15.1355 30.2394 15.3766 30.4806C15.6177 30.7217 15.9447 30.8571 16.2857 30.8571H31.7143C32.0553 30.8571 32.3823 30.7217 32.6234 30.4806C32.8645 30.2394 33 29.9124 33 29.5714V19.2857C33 18.9447 32.8645 18.6177 32.6234 18.3766C32.3823 18.1355 32.0553 18 31.7143 18ZM31.7143 19.2857V21.2143H16.2857V19.2857H31.7143ZM16.2857 29.5714V22.5H31.7143V29.5714H16.2857Z" fill="#32396E"/>
<path d="M17.5718 27H24.0003V28.2857H17.5718V27Z" fill="#32396E"/>
</svg>
