<svg width="27" height="27" viewBox="0 0 27 27" fill="none" xmlns="http://www.w3.org/2000/svg">
<circle cx="13.5" cy="13.5" r="13.5" fill="#7A930D"/>
<path fill-rule="evenodd" clip-rule="evenodd" d="M9.7875 12.6677V11.5783C9.7875 10.6293 10.1786 9.71913 10.8749 9.04806C11.5711 8.377 12.5154 8 13.5 8C14.4846 8 15.4289 8.377 16.1251 9.04806C16.8214 9.71913 17.2125 10.6293 17.2125 11.5783V12.6677C17.8258 12.7117 18.2245 12.823 18.5166 13.1045C19 13.57 19 14.3201 19 15.8193C19 17.3185 19 18.0686 18.5166 18.534C18.0337 19 17.2554 19 15.7 19H11.3C9.7446 19 8.96635 19 8.48345 18.534C8 18.0686 8 17.3185 8 15.8193C8 14.3201 8 13.57 8.48345 13.1045C8.77495 12.823 9.17425 12.7117 9.7875 12.6677ZM10.6125 11.5783C10.6125 10.8402 10.9167 10.1323 11.4582 9.61034C11.9997 9.0884 12.7342 8.79518 13.5 8.79518C14.2658 8.79518 15.0003 9.0884 15.5418 9.61034C16.0833 10.1323 16.3875 10.8402 16.3875 11.5783V12.6407C16.1769 12.6386 15.9481 12.6386 15.7 12.6386H11.3C11.0514 12.6386 10.8232 12.6386 10.6125 12.6407V11.5783ZM11.3 16.3494C11.4459 16.3494 11.5858 16.2935 11.6889 16.1941C11.7921 16.0947 11.85 15.9599 11.85 15.8193C11.85 15.6787 11.7921 15.5438 11.6889 15.4444C11.5858 15.345 11.4459 15.2892 11.3 15.2892C11.1541 15.2892 11.0142 15.345 10.9111 15.4444C10.8079 15.5438 10.75 15.6787 10.75 15.8193C10.75 15.9599 10.8079 16.0947 10.9111 16.1941C11.0142 16.2935 11.1541 16.3494 11.3 16.3494ZM13.5 16.3494C13.6459 16.3494 13.7858 16.2935 13.8889 16.1941C13.9921 16.0947 14.05 15.9599 14.05 15.8193C14.05 15.6787 13.9921 15.5438 13.8889 15.4444C13.7858 15.345 13.6459 15.2892 13.5 15.2892C13.3541 15.2892 13.2142 15.345 13.1111 15.4444C13.0079 15.5438 12.95 15.6787 12.95 15.8193C12.95 15.9599 13.0079 16.0947 13.1111 16.1941C13.2142 16.2935 13.3541 16.3494 13.5 16.3494ZM16.25 15.8193C16.25 15.9599 16.1921 16.0947 16.0889 16.1941C15.9858 16.2935 15.8459 16.3494 15.7 16.3494C15.5541 16.3494 15.4142 16.2935 15.3111 16.1941C15.2079 16.0947 15.15 15.9599 15.15 15.8193C15.15 15.6787 15.2079 15.5438 15.3111 15.4444C15.4142 15.345 15.5541 15.2892 15.7 15.2892C15.8459 15.2892 15.9858 15.345 16.0889 15.4444C16.1921 15.5438 16.25 15.6787 16.25 15.8193Z" fill="#445215"/>
</svg>
