<svg width="26" height="24" viewBox="0 0 26 24" fill="none" xmlns="http://www.w3.org/2000/svg">
<path d="M13 23H25ZM19 1.79836C19.5304 1.28718 20.2499 1 21 1C21.3714 1 21.7392 1.0705 22.0824 1.20749C22.4256 1.34447 22.7374 1.54525 23 1.79836C23.2626 2.05148 23.471 2.35196 23.6131 2.68267C23.7553 3.01338 23.8284 3.36783 23.8284 3.72579C23.8284 4.08374 23.7553 4.43819 23.6131 4.7689C23.471 5.09961 23.2626 5.40009 23 5.65321L6.33333 21.7151L1 23L2.33333 17.8602L19 1.79836Z" fill="#445215"/>
<path d="M13 23H25M19 1.79836C19.5304 1.28718 20.2499 1 21 1C21.3714 1 21.7392 1.0705 22.0824 1.20749C22.4256 1.34447 22.7374 1.54525 23 1.79836C23.2626 2.05148 23.471 2.35196 23.6131 2.68267C23.7553 3.01338 23.8284 3.36783 23.8284 3.72579C23.8284 4.08374 23.7553 4.43819 23.6131 4.7689C23.471 5.09961 23.2626 5.40009 23 5.65321L6.33333 21.7151L1 23L2.33333 17.8602L19 1.79836Z" stroke="#445215" stroke-linecap="round" stroke-linejoin="round"/>
</svg>
