<svg width="26" height="24" viewBox="0 0 26 24" fill="none" xmlns="http://www.w3.org/2000/svg">
<path d="M12.9167 23H24.8333ZM18.875 1.79836C19.4017 1.28718 20.1162 1 20.8611 1C21.23 1 21.5952 1.0705 21.936 1.20749C22.2768 1.34447 22.5864 1.54525 22.8472 1.79836C23.108 2.05148 23.3149 2.35196 23.4561 2.68267C23.5972 3.01338 23.6699 3.36783 23.6699 3.72579C23.6699 4.08374 23.5972 4.43819 23.4561 4.7689C23.3149 5.09961 23.108 5.40009 22.8472 5.65321L6.2963 21.7151L1 23L2.32407 17.8602L18.875 1.79836Z" fill="#516113"/>
<path d="M12.9167 23H24.8333M18.875 1.79836C19.4017 1.28718 20.1162 1 20.8611 1C21.23 1 21.5952 1.0705 21.936 1.20749C22.2768 1.34447 22.5864 1.54525 22.8472 1.79836C23.108 2.05148 23.3149 2.35196 23.4561 2.68267C23.5972 3.01338 23.6699 3.36783 23.6699 3.72579C23.6699 4.08374 23.5972 4.43819 23.4561 4.7689C23.3149 5.09961 23.108 5.40009 22.8472 5.65321L6.2963 21.7151L1 23L2.32407 17.8602L18.875 1.79836Z" stroke="#516113" stroke-linecap="round" stroke-linejoin="round"/>
</svg>
