<svg width="27" height="27" viewBox="0 0 27 27" fill="none" xmlns="http://www.w3.org/2000/svg">
<circle cx="13.5" cy="13.5" r="13.5" fill="#7A930D"/>
<path d="M13.5 13.5C12.7437 13.5 12.0964 13.2307 11.5578 12.6922C11.0193 12.1536 10.75 11.5063 10.75 10.75C10.75 9.99375 11.0193 9.34635 11.5578 8.80781C12.0964 8.26927 12.7437 8 13.5 8C14.2562 8 14.9036 8.26927 15.4422 8.80781C15.9807 9.34635 16.25 9.99375 16.25 10.75C16.25 11.5063 15.9807 12.1536 15.4422 12.6922C14.9036 13.2307 14.2562 13.5 13.5 13.5ZM8 19V17.075C8 16.6854 8.10038 16.3275 8.30113 16.0011C8.50188 15.6748 8.76817 15.4255 9.1 15.2531C9.81042 14.8979 10.5323 14.6316 11.2656 14.4542C11.999 14.2769 12.7437 14.188 13.5 14.1875C14.2562 14.1875 15.001 14.2764 15.7344 14.4542C16.4677 14.6321 17.1896 14.8984 17.9 15.2531C18.2323 15.425 18.4988 15.6743 18.6996 16.0011C18.9003 16.3279 19.0005 16.6859 19 17.075V19H8Z" fill="#445215"/>
</svg>
