<svg width="40" height="48" viewBox="0 0 40 48" fill="none" xmlns="http://www.w3.org/2000/svg">
<path fill-rule="evenodd" clip-rule="evenodd" d="M35 2.53309e-07C36.2614 -0.000403147 37.4764 0.481027 38.4014 1.34778C39.3263 2.21454 39.8929 3.40255 39.9875 4.67368L40 5.05263V42.9474C40.0004 44.2221 39.524 45.4499 38.6663 46.3845C37.8085 47.3192 36.6329 47.8918 35.375 47.9874L35 48H5C3.73856 48.0004 2.52358 47.519 1.59863 46.6522C0.673677 45.7855 0.107109 44.5974 0.0125005 43.3263L2.5067e-07 42.9474V5.05263C-0.000398948 3.77791 0.476016 2.55015 1.33374 1.61546C2.19147 0.680768 3.36711 0.108236 4.625 0.0126321L5 2.53309e-07H35ZM35 5.05263H5V42.9474H35V5.05263ZM13.75 32.8421C14.7446 32.8421 15.6984 33.2414 16.4017 33.952C17.1049 34.6627 17.5 35.6265 17.5 36.6316C17.5 37.6366 17.1049 38.6005 16.4017 39.3111C15.6984 40.0218 14.7446 40.4211 13.75 40.4211C12.7554 40.4211 11.8016 40.0218 11.0983 39.3111C10.3951 38.6005 10 37.6366 10 36.6316C10 35.6265 10.3951 34.6627 11.0983 33.952C11.8016 33.2414 12.7554 32.8421 13.75 32.8421ZM26.25 32.8421C27.2446 32.8421 28.1984 33.2414 28.9017 33.952C29.6049 34.6627 30 35.6265 30 36.6316C30 37.6366 29.6049 38.6005 28.9017 39.3111C28.1984 40.0218 27.2446 40.4211 26.25 40.4211C25.2554 40.4211 24.3016 40.0218 23.5983 39.3111C22.8951 38.6005 22.5 37.6366 22.5 36.6316C22.5 35.6265 22.8951 34.6627 23.5983 33.952C24.3016 33.2414 25.2554 32.8421 26.25 32.8421ZM13.75 22.7368C14.7446 22.7368 15.6984 23.1361 16.4017 23.8468C17.1049 24.5574 17.5 25.5213 17.5 26.5263C17.5 27.5313 17.1049 28.4952 16.4017 29.2059C15.6984 29.9165 14.7446 30.3158 13.75 30.3158C12.7554 30.3158 11.8016 29.9165 11.0983 29.2059C10.3951 28.4952 10 27.5313 10 26.5263C10 25.5213 10.3951 24.5574 11.0983 23.8468C11.8016 23.1361 12.7554 22.7368 13.75 22.7368ZM26.25 22.7368C27.2446 22.7368 28.1984 23.1361 28.9017 23.8468C29.6049 24.5574 30 25.5213 30 26.5263C30 27.5313 29.6049 28.4952 28.9017 29.2059C28.1984 29.9165 27.2446 30.3158 26.25 30.3158C25.2554 30.3158 24.3016 29.9165 23.5983 29.2059C22.8951 28.4952 22.5 27.5313 22.5 26.5263C22.5 25.5213 22.8951 24.5574 23.5983 23.8468C24.3016 23.1361 25.2554 22.7368 26.25 22.7368ZM28.75 7.57895C29.6822 7.57899 30.581 7.9299 31.271 8.56325C31.9611 9.19659 32.393 10.067 32.4825 11.0046L32.5 11.3684V16.4211C32.5 17.3631 32.1527 18.2713 31.526 18.9686C30.8992 19.666 30.0379 20.1024 29.11 20.1928L28.75 20.2105H11.25C10.3178 20.2105 9.41902 19.8596 8.72895 19.2262C8.03888 18.5929 7.60699 17.7225 7.5175 16.7848L7.5 16.4211V11.3684C7.50004 10.4264 7.8473 9.51817 8.47405 8.82084C9.1008 8.1235 9.9621 7.68707 10.89 7.59663L11.25 7.57895H28.75ZM27.5 12.6316H12.5V15.1579H27.5V12.6316Z" fill="#7A930D"/>
</svg>
