<svg width="28" height="28" viewBox="0 0 28 28" fill="none" xmlns="http://www.w3.org/2000/svg">
<circle cx="14" cy="14" r="14" fill="#7A930D"/>
<path d="M9.13708 10.1759C9.19238 10.1097 9.26154 10.0564 9.33969 10.0198C9.41784 9.98326 9.50307 9.9643 9.58936 9.96428H17.3482L17.5579 8.80634C17.5991 8.58004 17.7184 8.37537 17.895 8.22802C18.0716 8.08066 18.2943 7.99997 18.5243 8H19.4107C19.567 8 19.7169 8.06209 19.8274 8.1726C19.9379 8.28311 20 8.433 20 8.58928C20 8.74557 19.9379 8.89546 19.8274 9.00597C19.7169 9.11648 19.567 9.17857 19.4107 9.17857H18.6884L17.4651 15.9062C17.4323 16.0849 17.3643 16.2553 17.2652 16.4076C17.4407 16.6129 17.5603 16.8599 17.6124 17.1249C17.6646 17.3898 17.6477 17.6637 17.5632 17.9202C17.4787 18.1767 17.3296 18.407 17.1302 18.5891C16.9307 18.7712 16.6878 18.8988 16.4247 18.9596C16.1616 19.0204 15.8873 19.0125 15.6282 18.9364C15.3691 18.8604 15.1339 18.7189 14.9455 18.5255C14.757 18.3322 14.6215 18.0935 14.5521 17.8325C14.4826 17.5716 14.4816 17.2972 14.5491 17.0357H12.8795C12.9614 17.353 12.9421 17.688 12.8243 17.9937C12.7064 18.2995 12.4959 18.5608 12.2222 18.741C11.9486 18.9212 11.6254 19.0114 11.2979 18.9988C10.9705 18.9863 10.6551 18.8717 10.396 18.6711C10.1369 18.4705 9.94698 18.1939 9.85283 17.88C9.75868 17.5662 9.76501 17.2307 9.87094 16.9206C9.97686 16.6105 10.1771 16.3413 10.4436 16.1506C10.7101 15.9599 11.0295 15.8573 11.3572 15.8571H16.1122C16.1581 15.8571 16.2026 15.8409 16.2378 15.8115C16.2731 15.7821 16.2969 15.7412 16.3052 15.6961L16.4191 15.0714H10.9594C10.6374 15.0714 10.3255 14.9584 10.0782 14.7519C9.831 14.5455 9.66406 14.2589 9.60655 13.942L9.00941 10.6587C8.99405 10.5738 8.99753 10.4865 9.01959 10.4031C9.04165 10.3197 9.08176 10.2421 9.13708 10.1759ZM15.6786 17.4286C15.6786 17.5063 15.7016 17.5822 15.7448 17.6468C15.788 17.7114 15.8493 17.7618 15.9211 17.7915C15.9929 17.8212 16.0719 17.829 16.1481 17.8139C16.2243 17.7987 16.2943 17.7613 16.3492 17.7064C16.4042 17.6514 16.4416 17.5814 16.4568 17.5052C16.4719 17.429 16.4641 17.35 16.4344 17.2782C16.4047 17.2064 16.3543 17.1451 16.2897 17.1019C16.2251 17.0587 16.1492 17.0357 16.0715 17.0357C15.9673 17.0357 15.8673 17.0771 15.7937 17.1508C15.72 17.2244 15.6786 17.3244 15.6786 17.4286ZM11.3572 17.8214C11.4349 17.8214 11.5109 17.7984 11.5755 17.7552C11.6401 17.712 11.6904 17.6507 11.7202 17.5789C11.7499 17.5071 11.7577 17.4281 11.7425 17.3519C11.7273 17.2757 11.6899 17.2057 11.635 17.1508C11.5801 17.0958 11.5101 17.0584 11.4338 17.0433C11.3576 17.0281 11.2786 17.0359 11.2069 17.0656C11.1351 17.0953 11.0737 17.1457 11.0306 17.2103C10.9874 17.2749 10.9643 17.3509 10.9643 17.4286C10.9643 17.5328 11.0057 17.6327 11.0794 17.7064C11.1531 17.78 11.253 17.8214 11.3572 17.8214ZM10.7679 13.7318C10.7761 13.7767 10.7998 13.8174 10.8347 13.8468C10.8697 13.8762 10.9138 13.8925 10.9594 13.8928H16.6332L17.1331 11.1429H10.2955L10.7679 13.7318Z" fill="#FCFEE7"/>
</svg>
