<svg width="28" height="28" viewBox="0 0 28 28" fill="none" xmlns="http://www.w3.org/2000/svg">
<circle cx="14" cy="14" r="14" fill="#7A930D"/>
<path fill-rule="evenodd" clip-rule="evenodd" d="M13.3376 8C12.4864 8.00007 11.6476 8.2037 10.8911 8.59388C10.1346 8.98407 9.48233 9.5495 8.98881 10.243C8.49528 10.9365 8.17477 11.738 8.054 12.5806C7.93323 13.4231 8.01572 14.2824 8.29457 15.0866C8.57343 15.8908 9.04056 16.6166 9.65701 17.2036C10.2735 17.7905 11.0213 18.2216 11.8383 18.4607C12.6552 18.6999 13.5175 18.7402 14.3531 18.5784C15.1888 18.4165 15.9737 18.0572 16.6422 17.5303L18.9357 19.8237C19.0541 19.9381 19.2128 20.0014 19.3774 20C19.5421 19.9985 19.6996 19.9325 19.8161 19.8161C19.9325 19.6996 19.9985 19.5421 20 19.3775C20.0014 19.2128 19.9381 19.0542 19.8237 18.9357L17.5302 16.6423C18.1507 15.8552 18.537 14.9094 18.645 13.9129C18.753 12.9165 18.5782 11.9099 18.1408 11.0081C17.7033 10.1064 17.0208 9.346 16.1714 8.81401C15.322 8.28203 14.3399 7.99993 13.3376 8ZM9.25557 13.3379C9.25557 12.2553 9.68564 11.217 10.4512 10.4515C11.2167 9.68603 12.255 9.25597 13.3376 9.25597C14.4203 9.25597 15.4585 9.68603 16.2241 10.4515C16.9896 11.217 17.4197 12.2553 17.4197 13.3379C17.4197 14.4205 16.9896 15.4587 16.2241 16.2242C15.4585 16.9897 14.4203 17.4198 13.3376 17.4198C12.255 17.4198 11.2167 16.9897 10.4512 16.2242C9.68564 15.4587 9.25557 14.4205 9.25557 13.3379Z" fill="#DEF165"/>
</svg>
