<svg width="16" height="10" viewBox="0 0 16 10" fill="none" xmlns="http://www.w3.org/2000/svg">
<path fill-rule="evenodd" clip-rule="evenodd" d="M1.5 9.25C1.5 9.44891 1.42098 9.63968 1.28033 9.78033C1.13968 9.92098 0.948912 10 0.75 10C0.551088 10 0.360323 9.92098 0.21967 9.78033C0.079018 9.63968 -4.81776e-08 9.44891 -6.55671e-08 9.25L-8.08661e-07 0.750001C-8.2605e-07 0.551089 0.0790172 0.360324 0.219669 0.219672C0.360322 0.0790194 0.551087 1.35059e-06 0.749999 1.3332e-06C0.948911 1.31581e-06 1.13968 0.0790193 1.28033 0.219672C1.42098 0.360324 1.5 0.551089 1.5 0.750001L1.5 9.25ZM7.841 8.78C7.98145 8.63938 8.06034 8.44875 8.06034 8.25C8.06034 8.05125 7.98145 7.86063 7.841 7.72L5.871 5.75L15.25 5.75C15.4489 5.75 15.6397 5.67098 15.7803 5.53033C15.921 5.38968 16 5.19891 16 5C16 4.80109 15.921 4.61032 15.7803 4.46967C15.6397 4.32902 15.4489 4.25 15.25 4.25L5.871 4.25L7.841 2.28C7.91469 2.21134 7.97379 2.12854 8.01478 2.03654C8.05577 1.94454 8.07781 1.84523 8.07959 1.74452C8.08137 1.64382 8.06284 1.54379 8.02512 1.4504C7.9874 1.35701 7.93126 1.27218 7.86004 1.20096C7.78882 1.12974 7.70398 1.0736 7.6106 1.03588C7.51721 0.998157 7.41718 0.979632 7.31648 0.981409C7.21577 0.983186 7.11646 1.00523 7.02446 1.04622C6.93246 1.08721 6.84966 1.14631 6.781 1.22L3.531 4.47L3 5L3.53 5.53L6.78 8.78C6.84965 8.8497 6.93235 8.90498 7.02338 8.9427C7.1144 8.98043 7.21197 8.99984 7.3105 8.99984C7.40903 8.99984 7.5066 8.98043 7.59762 8.9427C7.68865 8.90498 7.77135 8.8497 7.841 8.78Z" fill="white"/>
</svg>
