<svg width="16" height="10" viewBox="0 0 16 10" fill="none" xmlns="http://www.w3.org/2000/svg">
<path fill-rule="evenodd" clip-rule="evenodd" d="M14.5 0.75C14.5 0.551088 14.579 0.360322 14.7197 0.21967C14.8603 0.0790175 15.0511 0 15.25 0C15.4489 0 15.6397 0.0790175 15.7803 0.21967C15.921 0.360322 16 0.551088 16 0.75V9.25C16 9.44891 15.921 9.63968 15.7803 9.78033C15.6397 9.92098 15.4489 10 15.25 10C15.0511 10 14.8603 9.92098 14.7197 9.78033C14.579 9.63968 14.5 9.44891 14.5 9.25V0.75ZM8.159 1.22C8.01855 1.36063 7.93966 1.55125 7.93966 1.75C7.93966 1.94875 8.01855 2.13937 8.159 2.28L10.129 4.25H0.75C0.551088 4.25 0.360322 4.32902 0.21967 4.46967C0.0790176 4.61032 0 4.80109 0 5C0 5.19891 0.0790176 5.38968 0.21967 5.53033C0.360322 5.67098 0.551088 5.75 0.75 5.75H10.129L8.159 7.72C8.08531 7.78866 8.02621 7.87146 7.98522 7.96346C7.94423 8.05546 7.92219 8.15478 7.92041 8.25548C7.91863 8.35618 7.93716 8.45621 7.97488 8.5496C8.0126 8.64299 8.06874 8.72782 8.13996 8.79904C8.21118 8.87026 8.29601 8.9264 8.3894 8.96412C8.48279 9.00184 8.58282 9.02037 8.68352 9.01859C8.78423 9.01682 8.88354 8.99477 8.97554 8.95378C9.06754 8.91279 9.15034 8.85369 9.219 8.78L12.469 5.53L13 5L12.47 4.47L9.22 1.22C9.15035 1.1503 9.06765 1.09502 8.97662 1.0573C8.8856 1.01958 8.78803 1.00016 8.6895 1.00016C8.59097 1.00016 8.4934 1.01958 8.40238 1.0573C8.31135 1.09502 8.22865 1.1503 8.159 1.22Z" fill="white"/>
</svg>
