<svg width="28" height="28" viewBox="0 0 28 28" fill="none" xmlns="http://www.w3.org/2000/svg">
<circle cx="14" cy="14" r="14" fill="#7A930D"/>
<path d="M15.9494 14.5094L13.5494 16.9094C13.4141 17.0447 13.2307 17.1206 13.0394 17.1206C12.8481 17.1206 12.6647 17.0447 12.5294 16.9094C12.3941 16.7741 12.3182 16.5907 12.3182 16.3994C12.3182 16.2081 12.3941 16.0247 12.5294 15.8894L13.7 14.72H8.72C8.52904 14.72 8.34591 14.6441 8.21088 14.5091C8.07586 14.3741 8 14.191 8 14C8 13.809 8.07586 13.6259 8.21088 13.4909C8.34591 13.3559 8.52904 13.28 8.72 13.28H13.7L12.5306 12.1094C12.4636 12.0424 12.4105 11.9629 12.3743 11.8754C12.338 11.7879 12.3194 11.6941 12.3194 11.5994C12.3194 11.4081 12.3953 11.2247 12.5306 11.0894C12.6659 10.9541 12.8493 10.8782 13.0406 10.8782C13.2319 10.8782 13.4153 10.9541 13.5506 11.0894L15.9506 13.4894C16.0176 13.5564 16.0708 13.6359 16.107 13.7235C16.1433 13.811 16.1619 13.9049 16.1618 13.9996C16.1617 14.0944 16.1428 14.1882 16.1064 14.2757C16.07 14.3632 16.0166 14.4426 15.9494 14.5094ZM18.8 8H15.44C15.249 8 15.0659 8.07586 14.9309 8.21088C14.7959 8.34591 14.72 8.52904 14.72 8.72C14.72 8.91096 14.7959 9.09409 14.9309 9.22912C15.0659 9.36414 15.249 9.44 15.44 9.44H18.56V18.56H15.44C15.249 18.56 15.0659 18.6359 14.9309 18.7709C14.7959 18.9059 14.72 19.089 14.72 19.28C14.72 19.471 14.7959 19.6541 14.9309 19.7891C15.0659 19.9241 15.249 20 15.44 20H18.8C19.1183 20 19.4235 19.8736 19.6485 19.6485C19.8736 19.4235 20 19.1183 20 18.8V9.2C20 8.88174 19.8736 8.57652 19.6485 8.35147C19.4235 8.12643 19.1183 8 18.8 8Z" fill="#FCFEE7"/>
</svg>
