<svg width="28" height="28" viewBox="0 0 28 28" fill="none" xmlns="http://www.w3.org/2000/svg">
<rect width="28" height="28" rx="4" fill="#32396E"/>
<path d="M8.63704 20.7143C8.18685 20.7143 7.8016 20.5466 7.48129 20.2111C7.16098 19.8757 7.00055 19.472 7 19C7 18.5286 7.16043 18.1251 7.48129 17.7897C7.80215 17.4543 8.1874 17.2863 8.63704 17.2857C9.08722 17.2857 9.47274 17.4537 9.7936 17.7897C10.1145 18.1257 10.2746 18.5291 10.2741 19C10.2741 19.4714 10.1139 19.8751 9.7936 20.2111C9.47329 20.5471 9.08777 20.7149 8.63704 20.7143ZM8.63704 15.5714C8.18685 15.5714 7.8016 15.4037 7.48129 15.0683C7.16098 14.7329 7.00055 14.3291 7 13.8571C7 13.3857 7.16043 12.9823 7.48129 12.6469C7.80215 12.3114 8.1874 12.1434 8.63704 12.1429C9.08722 12.1429 9.47274 12.3109 9.7936 12.6469C10.1145 12.9829 10.2746 13.3863 10.2741 13.8571C10.2741 14.3286 10.1139 14.7323 9.7936 15.0683C9.47329 15.4043 9.08777 15.572 8.63704 15.5714ZM8.63704 10.4286C8.18685 10.4286 7.8016 10.2609 7.48129 9.92543C7.16098 9.59 7.00055 9.18629 7 8.71429C7 8.24286 7.16043 7.83943 7.48129 7.504C7.80215 7.16857 8.1874 7.00057 8.63704 7C9.08722 7 9.47274 7.168 9.7936 7.504C10.1145 7.84 10.2746 8.24343 10.2741 8.71429C10.2741 9.18571 10.1139 9.58943 9.7936 9.92543C9.47329 10.2614 9.08777 10.4291 8.63704 10.4286ZM13.5481 10.4286C13.098 10.4286 12.7127 10.2609 12.3924 9.92543C12.0721 9.59 11.9117 9.18629 11.9111 8.71429C11.9111 8.24286 12.0715 7.83943 12.3924 7.504C12.7133 7.16857 13.0985 7.00057 13.5481 7C13.9983 7 14.3839 7.168 14.7047 7.504C15.0256 7.84 15.1857 8.24343 15.1852 8.71429C15.1852 9.18571 15.025 9.58943 14.7047 9.92543C14.3844 10.2614 13.9989 10.4291 13.5481 10.4286ZM18.4593 10.4286C18.0091 10.4286 17.6238 10.2609 17.3035 9.92543C16.9832 9.59 16.8228 9.18629 16.8222 8.71429C16.8222 8.24286 16.9826 7.83943 17.3035 7.504C17.6244 7.16857 18.0096 7.00057 18.4593 7C18.9094 7 19.295 7.168 19.6158 7.504C19.9367 7.84 20.0968 8.24343 20.0963 8.71429C20.0963 9.18571 19.9361 9.58943 19.6158 9.92543C19.2955 10.2614 18.91 10.4291 18.4593 10.4286ZM13.5481 15.5714C13.098 15.5714 12.7127 15.4037 12.3924 15.0683C12.0721 14.7329 11.9117 14.3291 11.9111 13.8571C11.9111 13.3857 12.0715 12.9823 12.3924 12.6469C12.7133 12.3114 13.0985 12.1434 13.5481 12.1429C13.9983 12.1429 14.3839 12.3109 14.7047 12.6469C15.0256 12.9829 15.1857 13.3863 15.1852 13.8571C15.1852 14.3286 15.025 14.7323 14.7047 15.0683C14.3844 15.4043 13.9989 15.572 13.5481 15.5714ZM14.3667 19.8571V18.4429C14.3667 18.3286 14.3871 18.218 14.4281 18.1111C14.469 18.0043 14.5304 17.9077 14.6122 17.8214L18.889 13.3643C19.0118 13.2357 19.1482 13.1429 19.2982 13.0857C19.4483 13.0286 19.5984 13 19.7484 13C19.9121 13 20.069 13.0323 20.2191 13.0969C20.3691 13.1614 20.5056 13.2577 20.6283 13.3857L21.3855 14.1786C21.4946 14.3071 21.58 14.45 21.6417 14.6071C21.7033 14.7643 21.7339 14.9214 21.7333 15.0786C21.7333 15.2357 21.706 15.3966 21.6515 15.5611C21.5969 15.7257 21.5082 15.872 21.3855 16L17.1292 20.4571C17.0473 20.5429 16.9554 20.6071 16.8533 20.65C16.7513 20.6929 16.6454 20.7143 16.5357 20.7143H15.1852C14.9533 20.7143 14.759 20.6323 14.6024 20.4683C14.4458 20.3043 14.3672 20.1006 14.3667 19.8571ZM15.5944 19.4286H16.372L18.8481 16.8143L18.4797 16.4071L18.0909 16.0214L15.5944 18.6143V19.4286ZM18.4797 16.4071L18.0909 16.0214L18.8481 16.8143L18.4797 16.4071Z" fill="#E2E8F7"/>
</svg>
