<svg width="28" height="28" viewBox="0 0 28 28" fill="none" xmlns="http://www.w3.org/2000/svg">
<circle cx="14" cy="14" r="14" fill="#7A930D"/>
<path d="M8.63704 20.8574C8.18685 20.8574 7.8016 20.6896 7.48129 20.3542C7.16098 20.0188 7.00055 19.6151 7 19.1431C7 18.6716 7.16043 18.2682 7.48129 17.9328C7.80215 17.5974 8.1874 17.4294 8.63704 17.4288C9.08722 17.4288 9.47274 17.5968 9.7936 17.9328C10.1145 18.2688 10.2746 18.6722 10.2741 19.1431C10.2741 19.6145 10.1139 20.0182 9.7936 20.3542C9.47329 20.6902 9.08777 20.8579 8.63704 20.8574ZM8.63704 15.7145C8.18685 15.7145 7.8016 15.5468 7.48129 15.2114C7.16098 14.8759 7.00055 14.4722 7 14.0002C7 13.5288 7.16043 13.1254 7.48129 12.7899C7.80215 12.4545 8.1874 12.2865 8.63704 12.2859C9.08722 12.2859 9.47274 12.4539 9.7936 12.7899C10.1145 13.1259 10.2746 13.5294 10.2741 14.0002C10.2741 14.4716 10.1139 14.8754 9.7936 15.2114C9.47329 15.5474 9.08777 15.7151 8.63704 15.7145ZM8.63704 10.5716C8.18685 10.5716 7.8016 10.4039 7.48129 10.0685C7.16098 9.73307 7.00055 9.32935 7 8.85735C7 8.38592 7.16043 7.98249 7.48129 7.64707C7.80215 7.31164 8.1874 7.14364 8.63704 7.14307C9.08722 7.14307 9.47274 7.31107 9.7936 7.64707C10.1145 7.98307 10.2746 8.38649 10.2741 8.85735C10.2741 9.32878 10.1139 9.73249 9.7936 10.0685C9.47329 10.4045 9.08777 10.5722 8.63704 10.5716ZM13.5481 10.5716C13.098 10.5716 12.7127 10.4039 12.3924 10.0685C12.0721 9.73307 11.9117 9.32935 11.9111 8.85735C11.9111 8.38592 12.0715 7.98249 12.3924 7.64707C12.7133 7.31164 13.0985 7.14364 13.5481 7.14307C13.9983 7.14307 14.3839 7.31107 14.7047 7.64707C15.0256 7.98307 15.1857 8.38649 15.1852 8.85735C15.1852 9.32878 15.025 9.73249 14.7047 10.0685C14.3844 10.4045 13.9989 10.5722 13.5481 10.5716ZM18.4593 10.5716C18.0091 10.5716 17.6238 10.4039 17.3035 10.0685C16.9832 9.73307 16.8228 9.32935 16.8222 8.85735C16.8222 8.38592 16.9826 7.98249 17.3035 7.64707C17.6244 7.31164 18.0096 7.14364 18.4593 7.14307C18.9094 7.14307 19.295 7.31107 19.6158 7.64707C19.9367 7.98307 20.0968 8.38649 20.0963 8.85735C20.0963 9.32878 19.9361 9.73249 19.6158 10.0685C19.2955 10.4045 18.91 10.5722 18.4593 10.5716ZM13.5481 15.7145C13.098 15.7145 12.7127 15.5468 12.3924 15.2114C12.0721 14.8759 11.9117 14.4722 11.9111 14.0002C11.9111 13.5288 12.0715 13.1254 12.3924 12.7899C12.7133 12.4545 13.0985 12.2865 13.5481 12.2859C13.9983 12.2859 14.3839 12.4539 14.7047 12.7899C15.0256 13.1259 15.1857 13.5294 15.1852 14.0002C15.1852 14.4716 15.025 14.8754 14.7047 15.2114C14.3844 15.5474 13.9989 15.7151 13.5481 15.7145ZM14.3667 20.0002V18.5859C14.3667 18.4716 14.3871 18.3611 14.4281 18.2542C14.469 18.1474 14.5304 18.0508 14.6122 17.9645L18.889 13.5074C19.0118 13.3788 19.1482 13.2859 19.2982 13.2288C19.4483 13.1716 19.5984 13.1431 19.7484 13.1431C19.9121 13.1431 20.069 13.1754 20.2191 13.2399C20.3691 13.3045 20.5055 13.4008 20.6283 13.5288L21.3855 14.3216C21.4946 14.4502 21.58 14.5931 21.6417 14.7502C21.7033 14.9074 21.7339 15.0645 21.7333 15.2216C21.7333 15.3788 21.706 15.5396 21.6515 15.7042C21.5969 15.8688 21.5082 16.0151 21.3855 16.1431L17.1292 20.6002C17.0473 20.6859 16.9554 20.7502 16.8533 20.7931C16.7513 20.8359 16.6454 20.8574 16.5357 20.8574H15.1852C14.9533 20.8574 14.759 20.7753 14.6024 20.6113C14.4458 20.4473 14.3672 20.2436 14.3667 20.0002ZM15.5944 19.5716H16.372L18.848 16.9574L18.4797 16.5502L18.0909 16.1645L15.5944 18.7573V19.5716ZM18.4797 16.5502L18.0909 16.1645L18.848 16.9574L18.4797 16.5502Z" fill="#FCFEE7"/>
</svg>
