<svg width="48" height="48" viewBox="0 0 48 48" fill="none" xmlns="http://www.w3.org/2000/svg">
<circle cx="24" cy="24" r="24" fill="#CCD7F1"/>
<circle cx="24" cy="24" r="20" fill="#A9BDE7"/>
<path d="M32.5503 22.7436L28.9286 25.8418L30.0135 30.4544C30.0709 30.6955 30.0545 30.9479 29.9664 31.1799C29.8783 31.412 29.7223 31.6134 29.518 31.7591C29.3137 31.9047 29.0702 31.9881 28.8178 31.9988C28.5654 32.0095 28.3154 31.9471 28.0991 31.8193L23.9948 29.3792L19.8993 31.8193C19.683 31.9471 19.433 32.0095 19.1806 31.9988C18.9282 31.9881 18.6846 31.9047 18.4804 31.7591C18.2761 31.6134 18.1201 31.412 18.032 31.1799C17.9439 30.9479 17.9275 30.6955 17.9849 30.4544L19.0682 25.8465L15.4457 22.7436C15.2541 22.5817 15.1156 22.3678 15.0474 22.129C14.9793 21.8902 14.9847 21.6369 15.0628 21.401C15.1409 21.1652 15.2884 20.9571 15.4866 20.8031C15.6849 20.649 15.9251 20.5557 16.1773 20.5349L20.9521 20.1296L22.8159 15.772C22.9133 15.5434 23.0774 15.3481 23.2878 15.2107C23.4981 15.0733 23.7452 15 23.998 15C24.2508 15 24.4979 15.0733 24.7082 15.2107C24.9185 15.3481 25.0827 15.5434 25.1801 15.772L27.0495 20.1296L31.8227 20.5349C32.0749 20.5557 32.3151 20.649 32.5134 20.8031C32.7116 20.9571 32.8591 21.1652 32.9372 21.401C33.0153 21.6369 33.0207 21.8902 32.9526 22.129C32.8844 22.3678 32.7459 22.5817 32.5543 22.7436H32.5503Z" fill="#32396E"/>
</svg>
