<svg width="47" height="47" viewBox="0 0 47 47" fill="none" xmlns="http://www.w3.org/2000/svg">
<path d="M47 23.4765C47 10.5162 36.472 0 23.5 0C10.528 0 0 10.5162 0 23.4765C0 30.6146 3.243 37.0477 8.319 41.3659C8.366 41.4129 8.413 41.4129 8.413 41.4599C8.836 41.7889 9.259 42.1179 9.729 42.4469C9.964 42.5879 10.152 42.7729 10.387 42.9609C14.2706 45.594 18.855 47.0011 23.547 47C28.239 47.0011 32.8234 45.594 36.707 42.9609C36.942 42.8199 37.13 42.6349 37.365 42.4909C37.788 42.1649 38.258 41.8359 38.681 41.5069C38.728 41.4599 38.775 41.4599 38.775 41.4129C43.757 37.0448 47 30.6146 47 23.4765ZM23.5 44.0419C19.082 44.0419 15.04 42.6319 11.703 40.2849C11.75 39.9089 11.844 39.5358 11.938 39.1598C12.2181 38.1408 12.6288 37.1623 13.16 36.2488C13.677 35.3558 14.288 34.5568 15.04 33.8518C15.745 33.1468 16.591 32.4917 17.437 31.9747C18.33 31.4577 19.27 31.0817 20.304 30.7997C21.346 30.5188 22.4208 30.3776 23.5 30.3796C26.7038 30.3569 29.7899 31.5859 32.101 33.8048C33.182 34.8858 34.028 36.1548 34.639 37.6088C34.968 38.4548 35.203 39.3478 35.344 40.2849C31.8753 42.7235 27.7401 44.0352 23.5 44.0419ZM16.309 22.3044C15.8949 21.3563 15.6866 20.331 15.698 19.2964C15.698 18.2654 15.886 17.2314 16.309 16.2914C16.732 15.3514 17.296 14.5083 18.001 13.8033C18.706 13.0983 19.552 12.5373 20.492 12.1143C21.432 11.6913 22.466 11.5032 23.5 11.5032C24.581 11.5032 25.568 11.6913 26.508 12.1143C27.448 12.5373 28.294 13.1012 28.999 13.8033C29.704 14.5083 30.268 15.3543 30.691 16.2914C31.114 17.2314 31.302 18.2654 31.302 19.2964C31.302 20.3774 31.114 21.3644 30.691 22.3015C30.2828 23.2276 29.7094 24.0717 28.999 24.7925C28.2779 25.5019 27.4339 26.0742 26.508 26.4816C24.5658 27.2797 22.3872 27.2797 20.445 26.4816C19.5191 26.0742 18.6751 25.5019 17.954 24.7925C17.2426 24.0822 16.6829 23.2376 16.309 22.3044ZM38.117 37.8908C38.117 37.7968 38.07 37.7498 38.07 37.6558C37.6078 36.1854 36.9264 34.793 36.049 33.5257C35.1708 32.249 34.0914 31.123 32.853 30.1916C31.9072 29.4801 30.882 28.8808 29.798 28.4056C30.2912 28.0803 30.7481 27.7031 31.161 27.2806C31.8617 26.5888 32.4771 25.8156 32.994 24.9776C34.0349 23.2674 34.5725 21.2983 34.545 19.2964C34.5595 17.8145 34.2717 16.3452 33.699 14.9783C33.1336 13.6613 32.3198 12.4654 31.302 11.4563C30.2857 10.4576 29.0897 9.66023 27.777 9.10625C26.4078 8.53459 24.9366 8.24774 23.453 8.26319C21.9692 8.24867 20.4979 8.53652 19.129 9.10919C17.8049 9.66199 16.606 10.4763 15.604 11.5032C14.6054 12.5184 13.808 13.7135 13.254 15.0253C12.6813 16.3922 12.3935 17.8615 12.408 19.3434C12.408 20.3774 12.549 21.3644 12.831 22.3015C13.113 23.2885 13.489 24.1815 14.006 25.0246C14.476 25.8706 15.134 26.6226 15.839 27.3276C16.262 27.7506 16.732 28.1236 17.249 28.4526C16.1616 28.9404 15.1361 29.5557 14.194 30.2856C12.972 31.2256 11.891 32.3507 10.998 33.5727C10.1116 34.8347 9.42961 36.2285 8.977 37.7028C8.93 37.7968 8.93 37.8908 8.93 37.9378C5.217 34.1807 2.914 29.1106 2.914 23.4765C2.914 12.1613 12.173 2.91106 23.5 2.91106C34.827 2.91106 44.086 12.1613 44.086 23.4765C44.0798 28.8814 41.9337 34.0639 38.117 37.8908Z" fill="#7A930D"/>
</svg>
