<svg width="59" height="55" viewBox="0 0 59 55" fill="none" xmlns="http://www.w3.org/2000/svg">
<path d="M17.6924 37.3077V2L21.6155 3.96154L25.5385 2L29.4543 3.96154L33.4227 2L37.3078 3.96154L41.2051 2L45.1196 3.96154L49.077 2L53.0013 3.96154L56.9232 2V29.4615" stroke="#7A930D" stroke-width="3" stroke-linejoin="round"/>
<path d="M56.9232 29.4619V43.1927C56.9232 45.7938 55.8898 48.2885 54.0505 50.1278C52.2112 51.9671 49.7166 53.0004 47.1155 53.0004M47.1155 53.0004C44.5143 53.0004 42.0197 51.9671 40.1804 50.1278C38.3411 48.2885 37.3078 45.7938 37.3078 43.1927V37.3081H3.96162C3.70338 37.3058 3.44729 37.3549 3.20827 37.4527C2.96925 37.5505 2.7521 37.6949 2.56949 37.8775C2.38689 38.0601 2.24249 38.2772 2.14473 38.5163C2.04696 38.7553 1.99779 39.0114 2.00008 39.2696C2.00008 47.1158 2.82637 53.0004 11.8078 53.0004H47.1155Z" stroke="#7A930D" stroke-width="3" stroke-linejoin="round"/>
<path d="M25.5381 13.7695H49.0765M33.3842 23.5772H49.0765" stroke="#7A930D" stroke-width="3" stroke-linecap="round" stroke-linejoin="round"/>
</svg>
