<svg width="10" height="11" viewBox="0 0 10 11" fill="none" xmlns="http://www.w3.org/2000/svg">
<path d="M9.58333 1.69231H7.5V1.26923C7.5 0.93261 7.3683 0.609776 7.13388 0.371749C6.89946 0.133722 6.58152 0 6.25 0H3.75C3.41848 0 3.10054 0.133722 2.86612 0.371749C2.6317 0.609776 2.5 0.93261 2.5 1.26923V1.69231H0.416667C0.30616 1.69231 0.200179 1.73688 0.122039 1.81622C0.0438988 1.89557 0 2.00318 0 2.11538C0 2.22759 0.0438988 2.3352 0.122039 2.41455C0.200179 2.49389 0.30616 2.53846 0.416667 2.53846H0.833333V10.1538C0.833333 10.3783 0.921131 10.5935 1.07741 10.7522C1.23369 10.9109 1.44565 11 1.66667 11H8.33333C8.55435 11 8.76631 10.9109 8.92259 10.7522C9.07887 10.5935 9.16667 10.3783 9.16667 10.1538V2.53846H9.58333C9.69384 2.53846 9.79982 2.49389 9.87796 2.41455C9.9561 2.3352 10 2.22759 10 2.11538C10 2.00318 9.9561 1.89557 9.87796 1.81622C9.79982 1.73688 9.69384 1.69231 9.58333 1.69231ZM3.33333 1.26923C3.33333 1.15702 3.37723 1.04941 3.45537 0.97007C3.53351 0.890728 3.63949 0.846154 3.75 0.846154H6.25C6.36051 0.846154 6.46649 0.890728 6.54463 0.97007C6.62277 1.04941 6.66667 1.15702 6.66667 1.26923V1.69231H3.33333V1.26923ZM8.33333 10.1538H1.66667V2.53846H8.33333V10.1538ZM4.16667 4.65385V8.03846C4.16667 8.15067 4.12277 8.25828 4.04463 8.33762C3.96649 8.41696 3.86051 8.46154 3.75 8.46154C3.63949 8.46154 3.53351 8.41696 3.45537 8.33762C3.37723 8.25828 3.33333 8.15067 3.33333 8.03846V4.65385C3.33333 4.54164 3.37723 4.43403 3.45537 4.35469C3.53351 4.27534 3.63949 4.23077 3.75 4.23077C3.86051 4.23077 3.96649 4.27534 4.04463 4.35469C4.12277 4.43403 4.16667 4.54164 4.16667 4.65385ZM6.66667 4.65385V8.03846C6.66667 8.15067 6.62277 8.25828 6.54463 8.33762C6.46649 8.41696 6.36051 8.46154 6.25 8.46154C6.13949 8.46154 6.03351 8.41696 5.95537 8.33762C5.87723 8.25828 5.83333 8.15067 5.83333 8.03846V4.65385C5.83333 4.54164 5.87723 4.43403 5.95537 4.35469C6.03351 4.27534 6.13949 4.23077 6.25 4.23077C6.36051 4.23077 6.46649 4.27534 6.54463 4.35469C6.62277 4.43403 6.66667 4.54164 6.66667 4.65385Z" fill="#516113"/>
</svg>
