<svg width="24" height="24" viewBox="0 0 24 24" fill="none" xmlns="http://www.w3.org/2000/svg">
<circle cx="12" cy="12" r="12" fill="#7A930D"/>
<path d="M7 6H8.05987C8.42946 6 8.61392 6 8.76124 6.08083C8.82197 6.11426 8.87698 6.15717 8.92419 6.20793C9.03826 6.33113 9.08324 6.51038 9.17254 6.86889L9.29117 7.34276C9.35701 7.6061 9.39025 7.73777 9.44109 7.84858C9.528 8.03767 9.65892 8.20321 9.8229 8.33135C9.98687 8.45949 10.1791 8.54652 10.3836 8.58515C10.5036 8.60731 10.6392 8.60731 10.911 8.60731" fill="#DEF165"/>
<path d="M7 6H8.05987C8.42946 6 8.61392 6 8.76124 6.08083C8.82197 6.11426 8.87698 6.15717 8.92419 6.20793C9.03826 6.33113 9.08324 6.51038 9.17254 6.86889L9.29117 7.34276C9.35701 7.6061 9.39025 7.73777 9.44109 7.84858C9.528 8.03767 9.65892 8.20321 9.8229 8.33135C9.98687 8.45949 10.1791 8.54652 10.3836 8.58515C10.5036 8.60731 10.6392 8.60731 10.911 8.60731" stroke="#DEF165" stroke-linecap="round"/>
<path d="M16.1254 14.474H9.31382C9.2193 14.474 9.17172 14.474 9.13522 14.4701C9.04471 14.46 8.95733 14.4311 8.8787 14.3851C8.80006 14.3392 8.73193 14.2773 8.67869 14.2034C8.62544 14.1295 8.58827 14.0453 8.56956 13.9562C8.55086 13.8671 8.55103 13.775 8.57008 13.686C8.58513 13.6283 8.60275 13.5713 8.62288 13.5152C8.65678 13.4148 8.67307 13.3646 8.69197 13.3197C8.78476 13.0974 8.9373 12.9052 9.13267 12.7644C9.32804 12.6235 9.5586 12.5396 9.79878 12.5218C9.84701 12.5186 9.90046 12.5186 10.0054 12.5186H13.5181" fill="#DEF165"/>
<path d="M16.1254 14.474H9.31382C9.2193 14.474 9.17172 14.474 9.13522 14.4701C9.04471 14.46 8.95733 14.4311 8.8787 14.3851C8.80006 14.3392 8.73193 14.2773 8.67869 14.2034C8.62544 14.1295 8.58827 14.0453 8.56956 13.9562C8.55086 13.8671 8.55103 13.775 8.57008 13.686C8.58513 13.6283 8.60275 13.5713 8.62288 13.5152C8.65678 13.4148 8.67307 13.3646 8.69197 13.3197C8.78476 13.0974 8.9373 12.9052 9.13267 12.7644C9.32804 12.6235 9.5586 12.5396 9.79878 12.5218C9.84701 12.5186 9.90046 12.5186 10.0054 12.5186H13.5181" stroke="#DEF165" stroke-linecap="round" stroke-linejoin="round"/>
<path d="M13.8623 12.5184H11.5457C10.7531 12.5184 10.3568 12.5184 10.051 12.3391C9.92215 12.2633 9.80727 12.1658 9.71145 12.051C9.48331 11.7786 9.41812 11.3875 9.28841 10.6059C9.15609 9.81395 9.09025 9.41764 9.24735 9.12432C9.31269 9.00191 9.40335 8.89481 9.51329 8.81014C9.77663 8.60742 10.1782 8.60742 10.9812 8.60742H15.3198C16.2649 8.60742 16.7375 8.60742 16.9291 8.91639C17.1201 9.22601 16.9083 9.64839 16.4859 10.4938L16.1945 11.0772C15.8438 11.7786 15.6685 12.1292 15.3537 12.3235C15.0382 12.5184 14.6464 12.5184 13.8623 12.5184Z" fill="#DEF165" stroke="#DEF165" stroke-linecap="round"/>
<path d="M15.4736 17.081C15.8336 17.081 16.1254 16.7892 16.1254 16.4292C16.1254 16.0692 15.8336 15.7773 15.4736 15.7773C15.1136 15.7773 14.8218 16.0692 14.8218 16.4292C14.8218 16.7892 15.1136 17.081 15.4736 17.081Z" fill="#DEF165"/>
<path d="M10.2592 17.081C10.6192 17.081 10.9111 16.7892 10.9111 16.4292C10.9111 16.0692 10.6192 15.7773 10.2592 15.7773C9.89925 15.7773 9.60742 16.0692 9.60742 16.4292C9.60742 16.7892 9.89925 17.081 10.2592 17.081Z" fill="#DEF165"/>
</svg>
