<svg width="27" height="27" viewBox="0 0 27 27" fill="none" xmlns="http://www.w3.org/2000/svg">
<circle cx="13.5" cy="13.5" r="13.5" fill="#7A930D"/>
<path d="M15.3333 15.5004L12.8889 18H17.7778C18.45 18 19 17.4376 19 16.7502C19 16.0628 18.45 15.5004 17.7778 15.5004H15.3333ZM13.5367 9.99497L8.17722 15.4754C8.06722 15.5879 8 15.7503 8 15.9128V17.3751C8 17.7188 8.275 18 8.61111 18H10.0411C10.2061 18 10.3589 17.9313 10.475 17.8188L15.8344 12.3384L13.5367 9.99497ZM17.6006 10.5261C17.6572 10.4683 17.7022 10.3997 17.7328 10.3241C17.7635 10.2485 17.7793 10.1674 17.7793 10.0856C17.7793 10.0037 17.7635 9.9227 17.7328 9.84711C17.7022 9.77151 17.6572 9.70284 17.6006 9.64503L16.1706 8.18275C16.114 8.12482 16.0469 8.07886 15.9729 8.0475C15.899 8.01614 15.8198 8 15.7397 8C15.6597 8 15.5804 8.01614 15.5065 8.0475C15.4326 8.07886 15.3654 8.12482 15.3089 8.18275L14.1906 9.32632L16.4822 11.6697L17.6006 10.5261Z" fill="#445215"/>
</svg>
